<?xml version="1.0" encoding="utf-8"?>
<!-- Generator: Adobe Illustrator 28.1.0, SVG Export Plug-In . SVG Version: 6.00 Build 0)  -->
<svg version="1.1" id="Layer_1" xmlns="http://www.w3.org/2000/svg" xmlns:xlink="http://www.w3.org/1999/xlink" x="0px" y="0px"
	 viewBox="0 0 472 341.3" style="enable-background:new 0 0 472 341.3;" xml:space="preserve">
<style type="text/css">
	.st0{fill:#202020;}
</style>
<g>
	<g>
		<g>
			<g>
				<g>
					<path class="st0" d="M145.1,322.7c-0.5,0.3-0.5,1.3,0.7,1.4l1.1-1.5L145.1,322.7z"/>
					<path class="st0" d="M152.1,327.3c1.5-0.5,3.3-1.6,2.7-3.3c-1.6,1.3-1.8,0.6-3.6,2.1c-1.2,0-1.9-0.9-1.5-1.5
						c-0.5,0.3-1.7-0.7-2.5,0.2c1.2,1.6,3.1,2,5.2,1.3C152.7,326.7,152.2,327,152.1,327.3z"/>
					<path class="st0" d="M263.3,338.3l-0.7-0.2C262.8,338.2,263.1,338.3,263.3,338.3z"/>
					<path class="st0" d="M332.9,331.9c-0.5,0.1-0.7,0.3-0.7,0.5C332.7,332.1,333.1,332,332.9,331.9z"/>
					<path class="st0" d="M345,331.3c-0.3,0-0.5,0-0.7,0C344.6,331.4,344.9,331.5,345,331.3z"/>
					<path class="st0" d="M263.3,338.3l1.9,0.5C265.3,338.2,264.3,338.4,263.3,338.3z"/>
					<path class="st0" d="M168,326.4c-0.4,0-0.7,0.1-1.1,0.2c0.3,0,0.6,0,1,0C167.9,326.6,168,326.5,168,326.4z"/>
					<path class="st0" d="M232.9,340.5l-0.6,0c-0.2,0.2-0.3,0.4-0.4,0.7L232.9,340.5z"/>
					<path class="st0" d="M208.9,341.2c0.5,0.1,0.8-1.3,1.1-1.9c-0.3,0.6-0.8,0.8-1.2,0.9C208.7,340.5,208.7,340.8,208.9,341.2z"/>
					<path class="st0" d="M172.1,333l-0.7,0.1C171.6,333.1,171.9,333,172.1,333z"/>
					<path class="st0" d="M249.6,340.1c0,0.2,0.1,0.4,0.2,0.5C249.8,340.4,249.7,340.2,249.6,340.1z"/>
					<path class="st0" d="M133.7,68.2c0-0.1,0-0.2,0-0.2C133.6,68.1,133.6,68.2,133.7,68.2z"/>
					<path class="st0" d="M107.1,59.6l0.4-0.1c0.1-0.3,0.1-0.5,0.1-0.8L107.1,59.6z"/>
					<path class="st0" d="M366.9,328c0,0-0.1,0-0.1,0C366.2,328.3,366.6,328.2,366.9,328z"/>
					<path class="st0" d="M447,185.5c0.5,2.6-3.7-1.8-2.5,1.7C444.7,186.7,448.3,188.3,447,185.5z"/>
					<path class="st0" d="M168.6,326.7c0.3,0,0.6,0.1,0.9,0.2C169.1,326.7,168.8,326.7,168.6,326.7z"/>
					<path class="st0" d="M444.5,187.3L444.5,187.3l0.1,0.4C444.6,187.5,444.6,187.4,444.5,187.3z"/>
					<path class="st0" d="M414.9,311.1c-0.2-0.2-0.5-0.3-0.7-0.4C414.2,310.9,414.4,311,414.9,311.1z"/>
					<path class="st0" d="M378.5,321.7l0.9-0.1C379.1,321.6,378.8,321.7,378.5,321.7z"/>
					<path class="st0" d="M432,300.9c0.5-0.2,0.8-0.1,1.3-0.6c-0.1,0-0.2,0-0.3,0C432.9,300.6,432.6,300.8,432,300.9z"/>
					<path class="st0" d="M449.5,289.4c-0.2,0-0.3,0-0.5,0c-0.1,0.1-0.3,0.3-0.5,0.5L449.5,289.4z"/>
					<path class="st0" d="M193.9,75.3c-0.4-0.5-0.6-0.9-0.7-1.4C193.4,75,190.4,74.8,193.9,75.3z"/>
					<path class="st0" d="M167.9,327.2c0.2-0.3,0.4-0.5,0.7-0.5c-0.2,0-0.5,0-0.7-0.1C167.8,326.8,167.8,327,167.9,327.2z"/>
					<path class="st0" d="M427.4,290.8c0.9-0.4,1.8-0.8,2.7-1.3c-0.4,0.2-0.8,0.4-1.3,0.6C428.4,290.3,427.9,290.5,427.4,290.8z"/>
					<path class="st0" d="M330.7,116.2L330,116C330.2,116.2,330.5,116.2,330.7,116.2z"/>
					<path class="st0" d="M437.5,284.5c0.7,0.1,1.3,0,1.9-0.2c0-0.2,0.1-0.3,0.1-0.5L437.5,284.5z"/>
					<path class="st0" d="M193.2,73.9C193.2,73.9,193.2,73.9,193.2,73.9C193.2,73.9,193.2,73.9,193.2,73.9z"/>
					<path class="st0" d="M172.1,73.9c3,0.5,1.7-1.6,2.4-2.5c3.6,0,1.5,1.6,2.5,2.7c2.3-0.1,4.3-1.6,5.9-1.2
						c0.1,0.3,0.4,0.5-0.1,0.8c2.6-1.1,7,1.1,10-0.2c0.2,0.2,0.3,0.4,0.3,0.5c-0.3-1-0.2-1.9,0-2.6c1.3,0.2,2.7-0.7,3,0.6
						c-0.8-0.2-1,0.3-1.4,0.6l1.5-0.3c1,1.9-2,0.3-2.3,1.5c2.8-0.1,6.3-0.9,8.3,0c0.1,1.8-5-0.4-2.5,1.6c-1-0.4-2.1-0.9-3.1-1.3
						c2,3.1-1.9-0.5-0.2,2.7c4.1,1.3,4.9,0.1,9,1.4c1.1-0.7,0-1.4,1.1-2.2c6.4-0.4,3.9,5.2,8.7,3.9c1.4-0.9,2.3-2.9,5.2-1.1
						l-1.5,1.6c4,1.1,2.9-2.2,6.9,0.1c-0.9,0.6-3.3-0.1-2.8,0.2c2.4,2.1,2.2-0.6,4.3-0.1l0,1.8c2.2,0.4,4.6,0.6,7,0.8
						c2.4,0.2,4.9,0.4,7.3,0.9c-0.4,0.4-1.3,0.7-0.4,1.5c6.2,0.8,12.8,3.7,18.2,6.4l2.6-0.7c0.5,0.2,0.8,0.9,0.1,1
						c2.1,1.2,0.4-0.9,1.6-1.1c1.3,0.3,1.4,1.3,0.5,1.5c4.3,0,12,1,15.7,3.9l-0.9,0.1c0.8,0.4,1.5,0.5,2.2,0.5c0.3,0,0.6-0.1,1-0.2
						c0.2,0,0.3-0.1,0.5-0.1l0.2-0.1c0.1,0,0.1,0,0.3,0c0.2,0,0.4,0,0.6-0.1c0.8-0.2,1.6-0.2,2.6,0.6l-0.6,0.1
						c6.8,2.7,14.9,4.1,19.3,8.2c1.8-1.6,6.4,3.5,7.9,0.9c3.3,2.9,2,3,7.1,6.1c1.4,0.7,2.9-0.8,4.8-0.3l-0.6,1.4l3.1-0.4l0.5,2.3
						l1.8,0.4c-0.6-0.4-1.1-1.3-0.8-1.6c2.9,0.5,5.9,3.9,5.6,4.6c2.2,0.5,4.4,1.2,6.6,1.7c-0.4,0.5-1.5,0.2-2.5,0.2
						c3.9,0.2-0.1,1.7,3.5,1.9c-0.2-0.5,0.6-0.7,0.8-1c1,1.6,4.4,3.2,7,4.2l-1,0.7c4.3,2.5,9.5,4.5,14.3,7.3
						c-1.5-1.4-0.2-2.8,1.3-2.1l-0.2,1.7c1.4-0.3-1.2-1.4,1.3-1.4c1.7,1.2,0.3,2.3-1,2.2l2.5,0.8c-0.1,0.5-0.8,0.4-1.2,0.9
						c1.4-0.3,2.9,3.7,5.1,2.9l-0.1,0.5c2.4,1.4,4.1,2.4,5.8,3.3c1.7,0.9,3.2,1.7,5.2,2.9c0.9-1.1,2.2,0.1,3.9-0.1
						c1.3,1.1,2.5,2.5,3.8,3.8c1.3,1.3,2.8,2.6,4.4,3.8c2.7,1.1,1.4-0.5,2.9-0.4c-0.6,1.2,2.7,3.4,0.5,2.9c2,1.4,3.2,2.3,4.7,3.2
						c1.4,0.9,3.1,1.8,5.8,3.4c-0.2-0.8-0.6-1.5,0-1.6c1,0.5,1.6,2,1.1,2.4l-0.3-0.1c3.3,1.4,5.6,4.8,7.9,7.9
						c1.1,1.6,2.2,3.1,3.3,4.4c1.2,1.3,2.4,2.2,3.8,2.7l-0.3-0.1l5,3c1.7,2-1.8-0.4-1,1.5c5.7,2.9,6.4,7.1,10.7,10
						c-0.2,2.7,2,5.2,4.3,7.9c2.3,2.6,4.8,5.4,5.1,8.2l0.6-0.7c1.4,0.6,0.4,1.6,0.7,2.5c0.5-0.5-0.1-1.6,0.8-1.2
						c3.4,4.4,5.7,9.7,7.1,15.1c1.4,5.4,1.9,11,1.9,16.2c0.1,1.9,1.2,2.4,2.1,3c0.5,0.3,0.9,0.7,1,1.3c0.2,0.6,0.1,1.5-0.5,2.7
						c-0.5-0.5-1-1-1.6-1.4c0.9,3.9,0.3,7.9-0.8,11.7c-0.3,0.9-0.6,1.9-1,2.8c-0.4,0.9-0.7,1.8-1,2.7c-0.4,0.9-0.8,1.8-1.1,2.7
						c-0.3,0.9-0.7,1.8-1,2.7c-0.1-0.6-0.5-0.9-0.1-1.5c-1,0.4-1.7,1.6-2.2,2.8c-0.5,1.2-0.8,2.4-0.4,2.7c-0.8,0.9-0.9-0.3-1.7,0
						c-0.8,0.4-1.2,1.4-1.5,2.3c-0.3,0.9-0.8,1.7-1.5,1.6c-0.2,0,0-0.6,0.2-0.9c-0.2,0.6-1.1,1.4-1.7,2.2c-0.6,0.8-1.1,1.3-0.2,1.5
						c-1.4,0.7-2.2,1.8-3.3,2.8c-1,0.9-1.9,1.9-3.1,2.2c-0.2,1.1-1.4,1.7-2.4,2.3c-1,0.6-1.9,1.1-1.6,2.2c-0.5-1-1.9-0.6-3.3,0.1
						c-1.4,0.8-2.8,2.1-3.5,3c0.2-0.9-1.8,0.2-1.6-1c-1.9,1.1-3.6,2.4-2.7,3.2c-1.2-0.1-2.3,0.1-3.2,0.6c-0.9,0.5-1.7,1.1-2.5,1.7
						c-1.5,1.2-2.9,2.2-4.7,1.1c-2.9,1.9-5.7,3.6-8.6,5.1c-2.9,1.5-5.7,3-8.5,4.3c-0.6-2.2,6.3-2.7,5.2-4.8c-2.6,1.5-4.5,3-6.5,4.3
						c-2,1.2-4.1,2.3-6.9,3c-1.5,0.2,0.5-1.2,0.9-1.7c-2.6,1.4-5.3,2.3-8,3.1c-2.6,0.8-5.2,1.6-7.5,2.9c0-0.2,0.4-0.6,0.9-0.9
						c-1,0.4-2.4,0.4-2,1.3l0.9-0.6c2,1-3.1,4.2-3,5c0.9-3.3-5.2,0.6-3.5-3.7c-0.6,0.4-1.3,1-1,1.7c-1,0.1-1.4-0.2-0.7-1.3
						c-3.4,1.5-1.9,2.2-5.1,3c-0.1-0.5,0.5-0.8,0.7-1.5c-1.4,1.3-2.8,2.8-5.7,3c0.1-0.3-0.3-0.6,0.5-0.8c-4.7,1.2-7.5,4.4-13,4.6
						c1.1-2.4-1.9-0.3-2.6-2.1l-2.7,1.1l1.3,0.7c-2.5,0.5-4.4,2.2-6.6,2.1l1.7-1.1c-1.5,0.4-3,0.8-4.6,1.2l2.8,0.2
						c-2.3,1.4,0.7,2.3-2.7,2.3c0.6-0.3-2.5,0.4-4-0.4l0,0c-1.1,0.8-2.3,1.6-4.2,1.5c-0.6-0.5,0.1-2.1-0.3-2.4
						c-1,1.7-5.8,1.3-7.1,3.2c0.5-0.5,0.3-1.4,0.1-1.6l-0.8,1.4c-1.2-0.2-1.4-0.4-1.3-1.2c-3.5,0.3,1.4,2.2-2.8,1.7
						c0.3-0.1,0.1-0.3,0.8-0.6c-4.2,0-7.9,1.9-11.9,1.6c-1.3-1.8,3.3-0.8,1.8-2.2c-2.7,0.5-5.5,1.3-8.3,2.1
						c-2.8,0.7-5.6,1.3-8.3,1.3l1,0.1c-0.5,2.7-4.1-1-6.7,0.4c0.7-0.2,0.8-1.5,0.6-1.2c-3.7-0.2-7.4,1.1-13,2.1l0.7-0.7
						c-2.2-0.5-5.7-0.2-8-0.5c-0.7,0.7-2.1,0.6-1.2,1.6c-3.7-1.9-7.2-1.4-10.5-0.6c-3.4,0.7-6.6,1.5-9.9,0.1
						c0.8-0.1,1.8-0.7,1.2-0.7l-5.5,1c0.5,1.1,0.8,0.7,2,1.5c-0.7,0.7-2.2,1.3-3.5,1.4c2.4-0.9-0.1-1.8-1.3-2.4
						c0.2,0.3-0.1,0.8,0,1.1c-3-1.9-0.3,2.4-4.3,1.2l0.2-0.6c-1.4,0.4-2.7,1.3-4.3,1.2c-0.7-1.3,1.5-0.7,1.6-1.8
						c-1.1,0.1-2.1,0.7-3.2,1.2c-1,0.5-2.1,0.7-3.1,0.1c0.9-0.4,2.3-0.4,3.2-0.8c-2.2-1.5-2.4-1.2-4-1.4l0.2,0
						c-1.2-0.2-2.4-0.6-3.6-0.9l0.9,0.5c-1.4,1.7-2.9,1.8-4.4,1.6c-1.5-0.1-3.1-0.4-5.1,0.5c3.8-1.7,0.7-1.2,1.2-2.6
						c-0.9-0.5-2.2-1.2-1.8-1.6c-1.9,1-2.7-1.3-5.4,0.1c0-0.5-1.8-0.3-1.3-1.5c-2.3,0,0.4,0.9,0.1,1.5c-3.7,1.1-7.8-3.3-13.2-1.9
						c-4.5,0.1-5.6,1.6-9.7,1.6c-1.2-1,1.4-1.5,1.4-1.5c-2-1.1-3.7-1.3-5.9-1.2c0.5-0.3,0.1-0.8-0.4-1.4c-1.7-0.2-1.4,1.5-3.5,0.4
						c0.5-0.5,1.1-1.2,2-1.6c-2,0.1-4.1,0.6-6.2,0.6c-0.4-0.9,1.5-1,2.3-1.4c-2.3-0.1-6-0.4-7,0.8l1.4,0.8c-0.8-0.1-0.2-1.2,0.5-1.3
						c2.1-0.6,2.7,1,2.7,1.5l-1.5,0c0.9,3.1,5.8,0.7,8.7,1.4l-1.6,1.8l3.3-1.1c0.5,0.7,0.7,1.9-0.7,1.9c1.9,1.4,2-0.4,3.5,1.1
						c0.2,0.2,0.1,0.3-0.1,0.3l2.1-0.2c-0.5,0.4,0.1,1.5-1.1,1c3.4,1.9,6.2-0.4,7.2,1.4l-0.3,0.1c5.2,0.2,0.8-1.4,4.9-2.5l1.9,4.2
						l0.8-1.4c0.5,0.1,1.5,0.4,1.2,1c2.1-0.7-0.2-0.7,1.1-1.5c2.3,1.8,7,0.4,7.3,2.9c1.1-1-2.3-1.3,0.5-1.6c0.4,2.7,3.2,0,5.3,1.5
						c-0.9,1.3-3,0.3-0.8,1.8c0.8-1.1,1.9-0.8,3.1-0.3c1.2,0.5,2.4,1.2,3.4,1c0.1-0.9,1.2-1,2.7-1c1.5,0,3.4,0.3,5.1-0.1
						c-0.1,0.3,1.5,0.6,3.5,0.8c1,0.1,2.1,0.2,3.2,0.3c1,0.1,2,0.2,2.8,0.3l-0.1,0.3c0.5-1.9,3.7-1.7,5.9-2.3c0,1.1-0.4,1.6-1.6,2.1
						l2.2-0.2c0.5-0.6,1.1-1,2.5-1.3l-0.5,1.4c2.8-0.3,5.7-1.9,9.4-1.2c0.2-1.3-3.1-3.5,0.8-4.4c0.2,0.7,0.4,1.9-0.7,2.2
						c0.3-0.1,1.2-0.6,1.9-0.3l-1.5,1.2c1.7,0.5,0.8-1,2.2-0.9c0,1,1,0.7,0.8,1.5c-0.3,0.1-1.2-0.4-1.7,0c1.5,0.1,3.4,0.7,4,1.4
						c-0.1-0.6,0-1.3,1.1-1.5c2.9-0.1,1,1.2,2.7,1.7c0.7-0.7,2.5,0,2.5-1.5c0.8,0,1,0.7,1.3,1.1c1.4-0.7,7-0.2,5.3-1.8l-0.4-0.1
						c0.1,0,0.2,0,0.2-0.1c0,0,0,0,0,0l0,0c4.9-1.5,10.2,0.5,15.1-0.4l0,0.5c2.9-0.8,6.4-0.7,8.4-2c0.9-0.1,2.1,0.7,1.8,1.3
						c2.2-0.6,2.4-1.1,5.7-0.6c-2.1,1.1,0.8,0.7-2.2,0.8c2.9,0.2,3.7,0.9,6.6-0.8c-0.9,1.4,2.3,1.4,3.7,0.8l-2.1-0.7
						c1.5-0.3,2.9-0.4,4.2-0.4l-0.5,1.7c3.1,0.6,5.6-0.6,8-1.5c2.4-1,4.6-1.9,7.1-0.5c1.4-1.4-3.3-0.3-2.1-1.9
						c2.7-0.2,5.9,1.8,6.8,1.6c3.8,0.3,3-3,7-3c-0.6-0.5-1.3-2,1.4-3c2.7-0.2,3.7,1.9,2.1,2.6c-0.6,0.2-1,0-1-0.2
						c-0.8,0.4-1.9,0.8-0.7,1.3l0.2-0.6c1.4,0.4,5.1-0.4,4.4,0.7c1.9-1,0.7-1.1-0.9-1.1c3.6,0.2,5.4-1.1,9-1.2
						c-0.6-0.2-1.3-0.8-0.7-0.9c5.3-0.3,2-1.6,5.5-2.6c2.2,0.4-0.2,2.3,3.1,0.7c2.3,0.1,0.8,1.4,0.1,2.1c3-1.9,6.2-0.6,8.1-0.9
						c-0.5,0.3-1.1,0.6-1.6,0.9c1-0.5,1.8-0.7,2.6-0.9l-1.2-0.9c1-0.1,1.9-0.3,2,0.2c0.8-1-1.3-1.7,0.5-3.3c1.5,0.2,3.8-1.7,4.7-0.3
						c-4.3,0.6,0.9,1.4-2.6,2.6c0.6-0.4,1.5-0.6,2.5-0.6c0.2,0.1-0.1,0.4-0.3,0.5c4.3,0.3,1.4-2.2,5.5-3.2c-0.3,1,1.4,1.3,2,1
						c-1.6,0.5-1.2-1.2,0.1-2.3c2.8-0.1,2.7-1.3,4.1-1.7l-1.6,0.2c0.3-1,1.6-1.3,3.3-2.1c0.4,0.6-1.5,0.9-0.8,1c0.8-1,2-1,3.4-0.9
						c1.4,0.1,2.9,0.2,4.1-0.8c1.5,0.1,0.6,1.5,1.9,1.6c2.8-2.1,3.8,0,6.8-2c-1.3-0.8-1.4-0.5,0.5-2.4l-5.1,2.6l2.9-2.8
						c-1.6,0.5-3.2,1.9-4.2,2c1.3-1.5,1.3-1.1,0.2-1.8c2.8,0.9,4-2.5,7-2.2l0.9,2.8c2.2,0,3.7-1.1,5.4-2.2c1.7-1.1,3.5-2.4,6.1-3
						l-1.8,0.1c0.2-1.3,3-1.3,4.4-2.4c0.2,1,1.4,0.9,2.3,1.2c-0.4-0.6,3.6-1.4,3.3-3.4l2.7,0.2c2.1-0.6,2.9-1.8,3.7-3
						c0.8-1.2,1.5-2.3,3.4-3.1c-0.6,1.5,1.4,1.3-0.8,3.2c1.3-0.6,2.5-1,2.2-1.6c1,0.2,2.8-3,4.4-2.7c0.3-0.7,0-1.6,1.4-2.3
						c0.2,0.1,0.2,0.4,0.2,0.4c-0.2-0.4,1.8-1.8,0-2.1c2.6,0.3,5.1-1.4,7.5-3.1c1.2-0.9,2.3-1.8,3.4-2.5c1.1-0.7,2.2-1.2,3.4-1.3
						c1.1-1.1,2.2-2.4,3.4-3.6c1.1-1.3,2.2-2.5,3.1-3.5c0.1,0.3,0.4,0.3-0.1,0.7c1.7-1.1,1.5-2.1,1.4-3c-0.1-1-0.1-1.9,1.5-3.3
						c2.6-0.9-0.7,2.4,0.6,1.6c1.5,0.7,2.2-0.4,3-2c0.7-1.6,1.3-3.5,2.9-4.3c-0.1,0.3-0.1,0.5-0.2,0.7c1.1-0.7,1.4-2.2,1.8-3.9
						c0.2-0.8,0.3-1.7,0.5-2.6c0.2-0.9,0.4-1.8,0.8-2.6c0,0,0.2,0.3,0.5,0.2c-0.3-1.5-0.3-3.5-0.2-5.5c0.1-2,0.2-4.1,0.2-5.9
						c1.1,1.3,0.4,1.7,1.8,1.2c0-0.8-0.5-0.8-1-0.9c-0.5-0.2-1-0.5-1-2.1c0.4-0.5,0.8-1.3,1.3-2c0.4-0.7,1-1.3,1.7-1.5
						c0,1,0,2-0.1,3.1c1-0.7,1-1.7,0.9-2.7c-0.1-1-0.5-2-0.4-2.8l0.8,0.2c0-1.2-0.3-2.1-0.5-2.8c-0.3-0.7-0.5-1.3-0.8-1.9
						c-0.6-1.2-1.2-2.4-1.4-4.8l-0.5,0.6c-1.1-1.2-1-1.7-0.8-2.4c0.2-0.6,0.5-1.2-0.5-2.4l1.8-1.2c-0.4-0.8-1.3-2.2-2.2-3.8
						c-0.9-1.5-2-3.2-2.7-4.6c2,1.1,3.9,4.5,5.3,6.6c-0.4-1.8-1.9-5.8-3.1-6.4c0.4,0.6,1.2,1.3,1.1,2.1c-2.2-1.6-3.8-3.9-5.2-7.1
						c1.9-0.5,1.2-2.7,0.1-5.1c-1.1-2.5-2.6-5.1-2-7c-2.2-2.3-3.8-5-5.4-7.8c-1.6-2.8-3.3-5.7-5.6-8.4c-0.7,3.8-1.4-1.6-3.5,0.7
						c-1.2-1.1-1.6-1.6-1.5-1.9c-0.6-1.7-1.3-3.3-1.9-5c-0.1-1.5,1.6,0.7,2,0.2c-2.3-2.9,0-2-1.1-4.3c-0.5,1.1-2,0.1-3.1-1.7l1,3.1
						c-2.3-1.3-2.6-2.5-2.9-3.8c-0.3-1.3-0.6-2.5-3-3.8l1.8,0.5c-1.1-0.7-2.9-2.5-4.7-4c-1.9-1.5-4-2.8-5.8-2.8c-0.1-0.6,0-1.6,1-1
						c-4.3-4.6-12.1-7.3-14.9-11.5l0.8-0.3c-1-0.6-2.4-0.2-3.1-1.7c0.3-0.2,0.8-0.3,0.4-0.7c-0.6-0.2-3.2-0.9-4.2-2.2l1.6,0.1
						c-2.1-2.3-4.3-3.3-6.5-4c-2.2-0.8-4.4-1.3-6.6-2.5c1.3-1.8-2.2-5.2-4-6.7l0.2-0.2c-2.9-2.1-5.6-3.4-8.5-4.4
						c-1.4-0.5-2.8-1-4.2-1.5c-1.4-0.5-2.9-1-4.4-1.7c-1.1-2.1-4-4-7.2-6c-3.2-1.9-6.8-3.9-9.4-6c0.7,0.8-0.9,1.4-2.1,1.1
						c-1.1-1.1-4.4-0.6-3.3-2.3l0.5,0.3c-0.1-2.3-3.2-3.2-5.4-4.4l-1.5,2.2c-1-1.6-2.5-2.7-4.2-3.7c-1.7-0.9-3.6-1.6-5.4-2.2
						c-3.7-1.2-7-2.2-7.9-4.5c-1.7,0-3.4-0.8-5.1-0.8l0.6-1.3c-3.8-2-5.8-3-10.8-4.6l1.4-0.6c-2.8-1.2-5,2.4-7.6,1.6l0-2.3
						c-4.9-1.8-9.3-5.3-14.9-5c0.2-0.3,0.5-0.8,1.3-0.6c-1.4-0.5-4.2-1.9-6.4-2.3c0,0,0,0-0.1,0c0.1,0-0.1,0-0.1,0
						c-0.1,0-0.1,0-0.2,0c-0.1,0-0.3,0-0.4,0c-0.3,0-0.5,0.1-0.7,0.1c-0.4,0.2-0.6,0.5-0.6,1.1c0.5-1.8-5-1.9-7.9-1.9l0.8-1.2
						c-2.8,1-3,1.4-6.3,0.9c-0.7-0.4-0.3-1.3,0.6-0.6c-2.3-1.5-2.3,0.6-5.1-1l1.4-0.5c-2.5-0.9-2.5-0.4-4.2,0.2
						c-1.8,0-4.8-1.8-4.8-3.1c-0.6,0.6-2.3,1.2-3.7,0.4c-0.1-0.5,0.6-0.6,0.9-0.7c-4.1-2.2-6.8-0.2-9.5-2.4c0.1-0.5-0.1-0.7-0.3-0.9
						c3.4,1,6.2,1.8,5.9,1.8c0.4-1.2-2.4-2.2,0.3-3.3c-2.5,0.3-6.9,1.3-9.4,0c-0.1-0.2-0.2-0.3-0.2-0.5l0.3-0.1
						c-0.6-0.3-1.2-0.3-1.8-0.2c-0.8-0.4-1.3-0.7-2.2-0.9c-0.1-1.1-3.1-1.4-4.5-1.8c-0.2,1.4-2,0.7-0.6,2.3
						c-0.2-0.2,0.3-0.1,1.2,0.1c0.2,0,0.5,0.1,0.6,0c0,0-0.1,0.1-0.1,0.1c0.9,0.2,2.1,0.5,3.5,0.8c-1.3,0.4-2.6,0.7-3.9-0.4
						c-0.9,0.7-1.9,1.4-2.5,1.7c-1.4-2.4-4.9-4.3-5.1-5.6c-2.2-0.1-4.8-0.6-7.2-0.8c-2.4-0.1-4.7,0-6.3,1c-1.3,0.1-1.2-1-1.6-1.5
						c0.8-0.1,1.6,0.1,2-0.2c-1.3,0.1-3.1-0.2-4.7-0.4c-1.6-0.1-3,0-3.5,0.8c-2.9-1.4,2.1-1.3-2.2-1.9l0.7-0.4
						c-3.9-2.3-7.5-1.8-11.2-1.3c-3.7,0.5-7.4,0.7-11.8-1.8c0.6,0.3,0.9,0.5,1,0.8c-2.6-0.8-5.2-1.3-8-1.7c-2.7-0.4-5.5-0.6-8.2-0.8
						c-5.5-0.5-10.9-0.9-16-2.9c-2.9-0.9-3.4,0.3-5.3,1l-0.5-1.6l-3.3,1.4c-2.3,0.4-4.1-0.7-6.1-1.6c-2-1-4.2-1.7-7.1-0.7l0.6,1.1
						c-2-0.3-6.4,0.1-6-1c-0.2,0.2-0.7,1-1.5,0.4l0-0.8c-1.7,0.3-3.4,0.7-5,1.1c-3.8-0.8,0.8-3.1-4.8-3.5c-2.1,0.2-6,2-5.3,2.6
						c0.8,0.1,2.1,0.6,2.2,1.4l-1.9,0.3c-0.4,2.3-2,4.6,2.6,6.5l3.3-1.3l1,1.2l-2.7-0.1c1.5,1.1,2.5,0.2,3.6-0.3
						c0.2,0.6,0.7,1.1,1.3,1.3l3.3-2.1c0.3,0.9-1.5,1.7,0.6,2.3c1.5-1-1.3-2.1,1.2-2.7c1.5,1.2,1,2,2.8,1.2c0.2,0.6-0.2,1-0.9,1.2
						c1.7-0.6,4.3,0,5.2-1.2c1.5,1.4,5.5,0,5.1,2.2c0.5-0.5,3-1.5,4.4-1.4c-2.9,2.4,5.5,0.7,4.5,3.4c1.1-1.1,2.9-1.2,4.9-1.1
						c2,0.1,4.2,0.3,6-0.1c-0.2,0.2-0.6,0.5-0.9,0.3c2,0.4,2.5,1.2,3.7,1.8c0.5-1.9,3.6-2,5.4-3c2.2,2.2-1.8,2.1-1.2,4
						c0.1-1.6,4.4-1,3.7-2.4c1.7,1.4,1.5,0.8,2.3,2.5c0.7-2.4,1.8-0.2,3.5-1.5c2.5,1.6,0.4,2.4,3.4,2c0.6,0.5,0.3,0.8-0.2,1.1
						C172.8,73.8,172.1,73.9,172.1,73.9z M242.1,83.7C242.1,83.8,242.1,83.8,242.1,83.7c-0.6-0.1-1.1-0.2-1.4-0.3
						C240.9,83.5,241.4,83.6,242.1,83.7z M247.8,85.3c-0.7-0.2-1.6-0.5-2.5-0.7c-0.1-0.5,0.3-0.9,0.8-0.8
						C245.8,84,247.1,84.6,247.8,85.3z M238,72.6c1,0,1.2,0.4,1.3,0.7c-0.4-0.1-1-0.2-1.7-0.2c0,0-0.1,0.1-0.2,0.1
						C237.6,73,237.8,72.8,238,72.6z"/>
					<path class="st0" d="M235.9,74c-0.1,0-0.2,0-0.4,0c0.2,0.2,0.3,0.3,0.5,0.4c0.1-0.1,0.3-0.2,0.4-0.3
						C236.2,74.1,236.1,74,235.9,74z"/>
					<path class="st0" d="M262.5,338.1l0.1,0c-0.1-0.1-0.2-0.1-0.3-0.2C262.4,338,262.4,338,262.5,338.1z"/>
					<polygon class="st0" points="324.5,114.1 324.6,113.8 324,113.9 					"/>
					<path class="st0" d="M229.3,334.3c-0.1-0.1-0.2-0.2-0.5-0.3C228.9,334.1,229.1,334.2,229.3,334.3z"/>
					<path class="st0" d="M215.3,334.6c-0.6-0.2-1.3-0.4-1.9-0.6C214.2,334.3,214.8,334.5,215.3,334.6z"/>
					<path class="st0" d="M204.8,333.1c-0.2,0.2-0.2,0.4-0.3,0.6c0,0,0,0,0,0L204.8,333.1z"/>
					<path class="st0" d="M375.1,312.9c0.1,0,0.3-0.1,0.4-0.2C376.4,312.2,375.8,312.5,375.1,312.9z"/>
					<path class="st0" d="M325.9,327.7c0.5-0.3,1-0.7,1.5-0.9C326.5,326.8,325.8,326.9,325.9,327.7z"/>
					<path class="st0" d="M427.1,290.9C427.1,290.9,427.1,290.9,427.1,290.9c0.1,0,0.2-0.1,0.3-0.1L427.1,290.9z"/>
					<path class="st0" d="M329.8,326.3c-1-0.1-1.7,0.1-2.4,0.4C328.1,326.7,329,326.7,329.8,326.3z"/>
					<path class="st0" d="M158.5,324.4l-0.5-0.2c0,0.1-0.1,0.2-0.1,0.2L158.5,324.4z"/>
					<path class="st0" d="M157.9,324.4l-0.6,0C157.5,324.5,157.8,324.6,157.9,324.4z"/>
					<path class="st0" d="M156,324.6l1.3-0.1C156.8,324.4,156.3,324.2,156,324.6z"/>
					<path class="st0" d="M172.5,327.8l0.3-0.5C172.7,327.4,172.6,327.6,172.5,327.8z"/>
					<path class="st0" d="M176.9,328.5c-1-0.3-2.4-1.6-3.9-1.5l-0.2,0.4C173.6,326.7,175.7,329.2,176.9,328.5z"/>
					<path class="st0" d="M193.9,337.9c-1.2-0.3-2.4-0.6-3.6-1c0.5,0.6,1.3,1.5-0.4,1.4C194.3,340.6,189.1,336.9,193.9,337.9z"/>
					<path class="st0" d="M205.3,340.2c-2,0.1-0.1,0.8-0.2,1.1C206.4,340.9,206.8,340.8,205.3,340.2z"/>
					<path class="st0" d="M288.5,337.8l-0.1,1.3C289.9,338.8,288.4,338.6,288.5,337.8z"/>
					<polygon class="st0" points="303.6,329.6 302,329 301.4,330.3 					"/>
					<polygon class="st0" points="314,337.4 313.4,337.7 315.9,336.9 					"/>
					<path class="st0" d="M447.3,292.7l-1.3-1C445.2,292.6,446.1,294.2,447.3,292.7z"/>
					<path class="st0" d="M470.2,235.8c0.7-0.8,0.9-2.7-0.1-3.6C470.2,233.6,469.9,235.1,470.2,235.8z"/>
					<polygon class="st0" points="344.2,109.3 345.5,109.4 343.2,108.7 					"/>
				</g>
			</g>
		</g>
	</g>
</g>
<g>
	<g>
		<g>
			<g>
				<g>
					<path class="st0" d="M179.4,143.8c0.3-0.3,0.7-1.2,0.2-1.3l-1,1.4L179.4,143.8z"/>
					<path class="st0" d="M177.9,139.7c-0.8,0.5-2,1.5-2.3,3c1.2-1.2,1-0.6,2.3-2c0.5,0,0.5,0.8,0.2,1.3c0.3-0.3,0.5,0.6,1.2-0.2
						c0-1.4-0.7-1.8-1.9-1.2C177.4,140.2,177.7,139.9,177.9,139.7z"/>
					<path class="st0" d="M137.3,117.8l0.2,0.3C137.4,118,137.3,117.9,137.3,117.8z"/>
					<path class="st0" d="M111.8,105c0.2,0.1,0.4-0.1,0.4-0.2C112,104.8,111.8,104.8,111.8,105z"/>
					<path class="st0" d="M108.2,101.2c0.1,0.1,0.1,0.2,0.2,0.2C108.4,101.3,108.3,101.2,108.2,101.2z"/>
					<path class="st0" d="M137.3,117.8l-0.5-0.8C136.5,117.5,137,117.6,137.3,117.8z"/>
					<path class="st0" d="M170.4,140.6c0.2,0,0.4-0.1,0.6-0.2c-0.1,0-0.3,0-0.4,0C170.5,140.4,170.5,140.5,170.4,140.6z"/>
					<path class="st0" d="M149.2,122l0.2,0.1c0.1-0.1,0.3-0.3,0.5-0.5L149.2,122z"/>
					<path class="st0" d="M158.1,125.8c-0.2-0.1-0.8,1.1-1.2,1.6c0.4-0.5,0.6-0.7,0.8-0.7C157.8,126.5,158,126.2,158.1,125.8z"/>
					<path class="st0" d="M170.9,134.5l0.3-0.1C171.1,134.5,171,134.5,170.9,134.5z"/>
					<path class="st0" d="M143.1,118.8c0.1-0.2,0.1-0.4,0.1-0.5C143.1,118.4,143.1,118.6,143.1,118.8z"/>
					<path class="st0" d="M131.7,3.4c0,0.1,0.1,0.1,0.1,0.2C131.8,3.5,131.7,3.4,131.7,3.4z"/>
					<path class="st0" d="M144.7,5.2l-0.1,0.1c0.1,0.2,0.2,0.5,0.3,0.7L144.7,5.2z"/>
					<path class="st0" d="M100.9,95.8C100.9,95.9,100.9,95.9,100.9,95.8C101.2,95.8,101,95.8,100.9,95.8z"/>
					<path class="st0" d="M31.7,64.6c-0.7,0.4-1.3,0.5-2,0.6c-0.7,0.1-1.5,0.2-2.1,0.8c0.3-0.1,1.3-0.3,2.1-0.6
						C30.5,65.2,31.3,64.9,31.7,64.6z"/>
					<path class="st0" d="M170.3,140.3c-0.1,0-0.2-0.1-0.4-0.2C170,140.3,170.2,140.3,170.3,140.3z"/>
					<path class="st0" d="M27.6,66.1L27.6,66.1l-0.1,0.1C27.5,66.1,27.5,66.1,27.6,66.1z"/>
					<path class="st0" d="M81.9,87.9c-0.1,0.2-0.1,0.4-0.1,0.6C81.9,88.4,81.9,88.2,81.9,87.9z"/>
					<path class="st0" d="M94.9,96.2l-0.3-0.3C94.7,96,94.8,96.1,94.9,96.2z"/>
					<path class="st0" d="M73.9,86.3c-0.1-0.2-0.1-0.4-0.5-0.3c0,0.1,0,0.1,0,0.2C73.6,86.1,73.8,86,73.9,86.3z"/>
					<path class="st0" d="M66.4,82.9c0,0.1,0,0.2,0,0.3c0.1,0,0.2,0,0.3,0L66.4,82.9z"/>
					<path class="st0" d="M109.1,14.4c0.3,0.3,0.6,0.6,0.9,1C109.4,14.6,110.4,13.7,109.1,14.4z"/>
					<path class="st0" d="M170.7,139.9c-0.2,0.3-0.3,0.4-0.5,0.4c0.1,0,0.2,0,0.3,0C170.7,140.2,170.7,140,170.7,139.9z"/>
					<path class="st0" d="M68.9,96.3l-1.1-0.7C68.1,95.8,68.5,96.1,68.9,96.3z"/>
					<path class="st0" d="M55.2,39.1l0.2-0.3C55.3,38.9,55.2,38.9,55.2,39.1z"/>
					<path class="st0" d="M64.2,94c0-0.5-0.1-0.9-0.3-1.2c-0.1,0.1-0.2,0.1-0.3,0.3L64.2,94z"/>
					<path class="st0" d="M110,15.4C110,15.4,110,15.4,110,15.4C110,15.4,110,15.4,110,15.4z"/>
					<path class="st0" d="M116.5,8.8c-1.2,0.5,0.2,1.9,0.4,3c-1.1,1.1-1.2-1-2-1.6c-0.6,0.8-0.6,2.7-1.3,2.9
						c-0.2-0.3-0.3-0.3-0.4-0.7c-0.3,1.7-2.6,1.3-2.9,3.4c-0.1-0.1-0.2-0.2-0.3-0.4c0.6,0.8,1,1.6,1.2,2.2c-0.5,0.3-0.5,1.5-1.2,0.5
						c0.3-0.1,0.2-0.6,0.1-1l-0.3,0.7c-1.2-1.4,0.5-0.9,0-2c-0.8,1-1.4,2.8-2.4,2.8c-0.9-1.5,1.6-1.4-0.1-2.3l1.5,0
						c-2.1-2,0.8-0.2-1.2-2.4c-1.8,0.3-1.5,1.6-3.3,1.9c0,1,0.7,1.2,0.7,2.2c-1.6,2.6-3.6-3.1-4.3-0.2c0,1.2,0.7,3.3-0.9,2.8
						l-0.4-1.9c-1.7,0.5,0.2,2.9-1.9,2.5c0-0.8,1-1.1,0.6-1.2c-1.7-0.9-0.3,1.3-1.1,1.7l-0.9-1.5c-1.6,1-2.9,3-4.6,4.1
						c-0.1-0.5,0-1.1-0.7-1.4c-2,1.8-5.1,2.1-7.8,2.2l-0.3,1.7c-0.2,0.1-0.6-0.4-0.5-0.8c-1.1-0.1,0.3,0.9,0.2,1.6
						c-0.5,0.3-1-0.5-0.9-1c-1,1.8-3.3,4.5-5.6,3.8l0.1-0.5c-1.5,0-0.2,3.4-1.9,2.7l0.1-0.3c-3,0.7-5.5,3.3-8.6,2.2
						c0.5,2.1-3.1,0.4-2.1,3.2c-2.2-0.6-2-1.3-4.6-1.2c-0.7,0.1-0.1,2.1-0.7,2.7l-0.7-1.4l-0.3,1.9l-1.3-1.4l-0.5,0.7
						c0.3,0,0.9,0.4,1,0.8c-0.8,1.1-3.1,0.2-3.4-0.5l-2,2.3c-0.2-0.6,0.1-1,0.3-1.5c-0.7,2.1-0.9-1.4-1.6,0.5
						c0.3,0.2,0.3,0.9,0.4,1.2c-1-0.6-2.4,0.1-3.3,0.9l-0.2-1.1c-2,0.6-3.8,2.3-5.9,3.2c1,0.1,1.6,1.9,1,2.3l-0.9-1.4
						c0,1.1,0.9,0.3,0.6,1.8c-0.9,0.2-1.3-1.4-1.1-2.1l-0.7,1c-0.3-0.4-0.1-0.8-0.3-1.3c0,1.1-2.3-0.7-2.2,1.1l-0.3-0.4
						c-2.1,1-2.9,1.9-4.6,2.8c0.5,1.3-0.3,1.3-0.3,2.6c-0.7,0.1-1.6,0-2.4,0.1l-0.3,0L29,51l-0.3,0.1c-0.3,0.1-0.7,0.2-1,0.3
						c-0.7,0.2-1.4,0.5-2,0.8c-0.7,0.7-0.6,1-0.4,1.2c0.2,0.2,0.6,0.5,0.5,0.9c-1-0.9-3.5,0.3-3-0.9c-1.5,0.8-2.5,1.3-3.4,1.9
						c-0.9,0.6-1.8,1.3-2.9,2.4c1.1,0.1,1.9,0,2.2,0.3c-0.3,0.4-2.2,0.4-3,0.1l0-0.1c-0.3,0.6-1.2,1.1-2.5,1.5
						c-1.3,0.4-3,0.8-4.9,1.2C6.6,61,4.7,61.5,3.1,62c-1.6,0.5-2.8,1-3.1,1.4c0.6,0.2,1.4,0.3,2.3,0.5l-0.5-0.1
						c2.3,0.6,4.5,1.1,6.6,1.6c0.5,0.4-0.2,0.3-1.1,0.2c-0.9-0.1-2.1-0.2-2.3,0.1c4.2,0.8,5.4,1.4,6.6,2.2c1.1,0.7,2.3,1.5,4.8,1.9
						c-1.4,1.5,1.4,2.7,4.2,3.7c1.4,0.5,2.8,1,4,1.6c1.2,0.6,2.1,1.2,2.8,2.2l0.2-0.9c0.7-0.2,0.9,0.1,1,0.4c0,0.3,0,0.7,0.1,0.9
						c0.2-0.7-0.2-1,0.3-1.3c4.8,1.1,8.4,5.4,12.6,8.2c1.5,1,2.9-3.7,4-0.9L44.3,85c4.1-0.3,6.7,3.2,10.6,3.2
						c-0.4,0.3-0.6,0.7-0.9,0.5c0.2,1.4,2.5,1.2,2.9,0.3c0.5,0.3-0.3,0.9-0.2,1.5c0.4,1,2.4-0.6,2.2,0.7c0,0.2-0.4,0.3-0.5,0.3
						c0.7-0.3,2,1.1,2.2-0.4c0.9,1.2,2.6,0.5,3.2,1.7c1.3-1.1,1.8,1.6,2.9-0.2c-1,2,1.3,2.6,2.6,2c-0.5,0.5,0.4,1-0.3,1.7
						c0.9,0.4,1.9,0.4,2.2-0.8c0.5,3.2,4.2-0.5,3.6,3.1c3.1,0.1,5.9,0.5,8.4,1.1c-1,2-2.7-1-3.6,1.2c2.6,0.2,4.7-1,6.7,0.6
						c0.4,0.5-0.7,0.7-1.1,1c2.6,0.2,4.2,2.2,6.7,2c-0.1,0.2-0.4,0.3-0.7,0.4c0.4,0.1,0.8,0.7,1.2-0.2l-0.5,0.1
						c0-1.6,2.9-2.1,3.3-2.8c-1.9,2.4,1.6,1.6-1,4.5c0.3-0.1,0.9-0.3,1.1-1c0.3,0.4,0.2,0.8-0.5,1.3c1.6,0.1,1.6-1.1,2.8-0.5
						c-0.2,0.4-0.5,0.5-0.9,1c1-0.6,2.1-1.2,3-0.3c-0.2,0.2-0.2,0.7-0.5,0.5c1.9,0.7,4.2-0.9,5.8,0.9c-1.5,1.7,0.4,1-0.3,2.7l1.3,0
						l0-1c0.9,0.5,2.3-0.4,2.9,0.6l-1,0.4l1.9,0.5l-0.7-1.1c1.4-0.4,0.9-2.2,1.9-1.1c-0.3,0.1,0.9,0.5,1,1.7l0,0
						c0.7-0.3,1.5-0.7,2,0.1c-0.1,0.6-1,1.8-1.1,2.2c1.1-1.2,2.4,0.6,3.7-0.6c-0.4,0.3-0.8,1.1-0.8,1.4l0.9-1
						c0.3,0.6,0.2,0.8-0.2,1.5c1.2,0.8,0.6-2.3,1.7-0.7c-0.2,0-0.2,0.2-0.5,0.3c1.3,1.2,3.4,0.7,4.5,1.9c-0.4,1.9-1.5-0.2-1.6,1.5
						c2.2,0.7,5.3,0,7.1,1.3l-0.3-0.4c1.4-2.3,0.9,1.9,2.5,1.2c-0.3,0.1-0.9,1.2-0.8,0.9c1.2,1,3.1,0.7,5.5,0.9L134,122
						c0.6,0.9,2,1.3,2.7,2c0.5-0.5,1-0.2,1.1-1.2c1.1,4.8,6,0.5,7.1,4.6c-0.3-0.1-0.9,0.2-0.7,0.3l2.3,0.4c0.3-1.1,0-0.8,0-1.8
						c0.5-0.5,1.3-0.7,1.9-0.5c-1.2,0.3-0.8,1.7-0.7,2.5c0.1-0.4,0.4-0.6,0.5-1c0.2,2.4,1.2-2,2-0.1l-0.3,0.5c0.7,0,1.5-0.5,2-0.1
						c-0.3,1.3-0.8,0.3-1.3,1.3c0.9,0.3,2.7-1.5,2.9,0c-0.5,0.2-1-0.1-1.5,0.1c0.1,1.8,0.4,1.5,0.9,2l0-0.1l1.1,1.3l-0.2-0.6
						c2.5-2.7,2.4,0.4,4.7-1c-2.3,1.3-0.8,1-1.5,2.4c0.2,0.5,0.5,1.2,0.2,1.5c1.2-0.8,0.7,1.4,2.4,0.2c-0.2,0.5,0.7,0.4,0,1.4
						c1,0.1,0.2-0.9,0.5-1.4c2-0.9,2.2,3.3,5.1,2.1c2-0.1,3-1.4,4.9-1.5c0.2,0.9-1.2,1.4-1.2,1.4c0.5,1,1.2,1.2,2.2,1.1
						c-0.3,0.3-0.3,0.7-0.3,1.3c0.7,0.2,1.2-1.4,1.7-0.4c-0.4,0.4-0.9,1.1-1.5,1.5c0.9-0.1,2-0.5,3-0.6c-0.2,0.9-1,1-1.5,1.3
						c1,0.1,2.5,0.3,3.4-0.8l-0.3-0.7c0.3,0.1-0.3,1.1-0.7,1.2c-1.2,0.6-0.9-0.9-0.7-1.4l0.7,0c0.7-2.9-2.4-0.6-3.4-1.3l1.3-1.7
						l-1.9,1c0-0.6,0.3-1.7,1-1.8c-0.3-1.3-1,0.3-1.2-1c0-0.2,0.1-0.3,0.2-0.3l-1,0.2c0.3-0.3,0.5-1.4,0.8-0.9
						c-0.9-1.7-2.9,0.4-2.7-1.3l0.2-0.1c-2.2-0.3-0.8,1.3-3,2.3l0.6-3.9l-0.8,1.3c-0.2-0.1-0.5-0.4-0.2-0.9c-1.2,0.6-0.2,0.7-1,1.4
						c-0.4-1.7-2.9-0.6-2.1-2.9c-0.8,0.9,0.5,1.2-0.8,1.5c0.8-2.5-1.4-0.1-1.7-1.6c0.8-1.1,1.4-0.1,1-1.6c-1.5,1.8-1.5-1.2-2.4-1.2
						c-0.8,1.6-1.9-0.1-3.4-0.1c0.3-0.5-1.9-2-2.7-3.1l0.2-0.3c-1,1.6-2,0.7-3,0.6c0.5-1,0.8-1.3,1.5-1.5l-0.8-0.4
						c-0.4,0.4-0.8,0.6-1.4,0.6l0.8-1.1c-1.1-0.4-2.8,0.5-3.8-1c-0.6,1.1-0.4,3.7-2.2,3.8c0.2-0.7,0.7-1.7,1.2-1.8
						c-0.2,0-0.7,0.3-0.8-0.1l1.1-0.8c-0.4-0.8-0.7,0.7-1.2,0.4c0.4-0.9-0.1-0.8,0.3-1.5c0.2,0,0.3,0.6,0.6,0.3
						c-0.5-0.4-0.9-1.3-0.8-2.1c-0.2,0.5-0.6,1.2-1,1.1c-1.1-0.4,0.1-1.2-0.3-2c-0.5,0.5-0.9-0.5-1.6,0.9c-0.3-0.2-0.1-0.8,0-1.2
						c-0.8,0.3-2.7-1-2.7,0.7l0.1,0.2c0,0-0.1,0-0.1,0l0,0l0,0c-2.4,0.5-3.4-2.5-5.5-2.8l0.2-0.4c-1.3,0-2.5-0.8-3.7-0.2
						c-0.3-0.1-0.4-1.2,0-1.6c-1,0-1.3,0.4-2.1-0.9c1.2-0.4,0-0.8,1.1-0.2c-0.9-0.9-0.8-1.7-2.5-1c0.9-1-0.1-1.8-0.8-1.7l0.4,1.2
						c-0.6-0.1-1.1-0.4-1.6-0.8l1-1.4c-1.3-2.9-5.4,1.3-5.6-2.6c-1.1,0.8,0.8,1.3-0.3,2.3c-0.9-0.7-0.9-3.3-1.3-3.5
						c-1-1.5-2.3,1.6-3.5,0.4c-0.1,0.6-0.6,2.1-1.9,2.1c-0.9-0.7-0.2-2.8,0.7-3c0.3,0.1,0.3,0.3,0.2,0.5c0.4,0,1-0.1,0.8-0.8
						l-0.4,0.5c-0.2-0.8-1.7-1.4-0.9-2.1c-1,0.2-0.7,0.7-0.3,1.3c-0.9-1.4-2-1-3.1-2.1c0.1,0.4,0,1.1-0.2,1
						c-1.6-1.6-1.3,0.6-2.8,0.2c-0.4-1.2,1.2-1.8-0.5-1.8c-0.6-0.9,0.5-1.5,1-1.8c-1.7,0.5-1.9-1.7-2.5-2.3l0.8-0.1
						c-0.5,0.1-0.8-0.1-1.1-0.2l-0.1,1.2c-0.3-0.4-0.6-0.5-0.4-1c-0.7,0.5-0.5,1.9-1.8,2.5c-0.2-0.8-1.8-0.1-1.3-1.6
						c1.3,1.2,0.5-1.5,1.9-1.1c-0.3,0.1-0.6-0.1-0.9-0.5c0-0.2,0.2-0.3,0.3-0.3c-0.9-2-1.4,1.3-3,0.5c0.6-0.7,0.4-1.7,0-1.6
						c0.6,0.3-0.3,1.5-1.2,1.8c-0.7-1.1-1.3,0-1.8-0.4l0.5,0.6c-0.6,0.7-1,0.4-1.8,0.3c0.2-0.7,0.8-0.1,0.7-0.5
						c-1.4,1.1-1.1-2.3-2.6-1.8c-0.2-0.8,0.7-1.5,0.4-2.1c-1.7,0.5-0.8-1.7-2.5-1.4c-0.1,1.3,0,1-1.3,1.7l2.4,0.2L88.6,94
						c0.6,0.3,1.6-0.1,1.9,0.3c-1,0.6-0.9,0.3-1,1.4c-0.1-2-2.1,0.1-2.6-1.4l1.3-2.7c-0.9-1.9-3.3,0.1-4.9-1.5l0.4,0.8
						c-0.8,0.9-1.3-0.4-2.1-0.3c0.5-0.9,0.2-1.4,0.2-2.1c-0.3,0.7-1.4-0.7-2.4,1L79.1,88c-1.3-1.2-3,1.7-4.3,0.7
						c0.9-0.8,0.5-1.7,1.9-1.9c-0.5-0.2-0.9-0.6-1.2,0c0-0.7-2,0.6-2-0.5c-0.4,0.3-0.9,1.2-1.4,0.9c0-0.2,0.2-0.4,0.2-0.4
						C72,87.1,71,86.8,71.1,88c-0.2-3.5-4.4-1.8-4.7-4.9c-1.2-0.2-2.7-0.5-3.7-0.9c0.2-0.2,0.2-0.4,0.4-0.3c-1-1.5-2,2.2-3.2,0.5
						c-0.1-1.8,1.2-0.4,1-1.2c1.2-3-2.1-0.5-2.3-2.7l0.3-0.1c-0.3-1.4-2.5,0.2-3.7-0.6c0,0,0.2-0.2,0.2-0.4c-1.6,1.1-3.5,0.8-5,0.6
						c0.9-1,0.9-0.3,1.2-1.6c-0.6-0.1-0.7,2-2,1.8c-0.1-0.8-0.6-1.7-0.2-3l1.1,0.4c0.2-1.9-1.4-0.6-1.8-1.1l0.4-0.7
						c-1.7-0.5-2.6,1.2-4.3,0.3l-0.1,0.6c-1.8,1.3-0.3-1.4-1.9-0.5l0.5-1.9c-0.8,0.1-3,0.7-4.3,0.5c1.3-1,2.9-1.1,4.1-1.5
						c-0.6-0.3-2.2-0.9-2.9-0.1c0.3-0.1,0.9-0.3,1,0c-1.4,1-2.8,1.3-4,0.6c1.8-3.4-2.9-2.4-2.5-5.5c-0.4,0-0.7,0-1,0l-0.1,0l0,0
						c0,0-0.1,0-0.1,0c-0.1,0-0.1,0-0.2,0c-0.2-0.1-0.4-0.3-0.5-0.5c-0.2-0.4-0.1-0.9-0.5-0.9c-3.1,1.8-0.3-0.1-4.1,1.6
						c-0.6-0.1-0.8-0.2-0.5-0.3c0.4-0.5,1-0.9,1.7-1.2c1.3-0.4,1.3-0.1,2.3-0.4c0-0.1,0.5-0.3,1.1-0.4c0.6-0.1,1.4-0.3,2.1-0.4
						c-1.8,0.4-2.7,0.4-2.1,0.3c-0.8,0.1-1.6,0.3-2.3,0.5c-1.7,0.1-0.8-0.2,0.4-0.4c1.1-0.2,2.4-0.3,0.6-0.3c0.7,0,1.4,0,2.1-0.1
						c-0.7,0-0.7,0-1.7-0.1c-1.4-0.1-2.8-0.3-3.6-0.3c0.8,0,2.7,0.1,3,0.2c0.6-0.1-0.5-0.3-0.9-0.7c-0.5-0.3-0.4-0.8,0.9-0.5
						l0.9,0.4c-0.2-0.1-1.6-0.8-0.5-0.5c0.4,0.2,0.8,0.4,0.9,0.4c-0.1-0.1-0.4-0.3-0.6-0.5c-0.2-0.2-0.2-0.4,0.1-0.3
						c0.2,0.2,0.5,0.4,0.7,0.6c0.7,0.2,0.4-0.2,0.2-0.9c-0.1-0.3-0.2-0.7-0.2-1.1c0-0.2,0-0.4,0.1-0.5c0-0.1,0.1-0.2,0.1-0.2
						c0.1-0.1,0.2-0.2,0.3-0.3c0.9,2,3,1.9,4,1.8l0.1,0.3c2.7-0.9,3.7-3.7,5.7-5.5c2.5,1.5,5.5-1.4,8.4-1.3c-0.5-0.2-0.6-1.6-0.3-2
						c0.7,0.1,0.9-2.1,1.7-0.2l-0.2,0.1c1.2,1.6,2.2,0.6,3.1,0.2l-0.9-2.5c4,2.4,5.6-4.1,8.3-1.6c0.3-0.9,1-1.2,1.3-2l0.6,1.3
						c1.7-0.4,2.6-0.6,4.4-1.8l0,1.1c1.1-0.4-0.3-4.3,0.7-4.9l1.2,1.8c1.9-0.9,4.6-0.1,5.7-2.7c0.1,0.3,0.3,0.9,0,1.1
						c0.9-0.4,4.1-0.3,2.6-2.8c0.8,1.7,2.1-0.7,2.8-2l0.4,1.3c0.1-2,0-2.5,1-3.5c0.4,0,0.7,0.9,0.2,0.7c1.3,0.2,0.2-1.5,1.7-1.4
						l-0.1,1c1-0.4,0.8-0.8,0.9-1.9c0.4-0.8,2-0.5,2.7,0.5c-0.2-0.8-0.1-1.9,0.7-1.9c0.3,0.4,0.2,0.8,0.1,0.9
						c2.1,0.1,1.8-2.6,3.5-1.9c0.2,0.4,0.4,0.6,0.5,0.7c-1.3,0.6-2.4,1-2.4,0.8c0.5,1.2,1.7,0.9,1.6,2.9c0.5-1.3,1.1-3.9,2.3-3.8
						c0.1,0.1,0.2,0.2,0.3,0.3l0,0.2c0.3,0,0.5-0.2,0.6-0.5c0.4,0,0.7,0.1,1,0c0.6,0.9,1.5,0,2-0.2c-0.6-1.3,0.2-1.4-1-2.1
						c0.1,0.1,0,0.2-0.4,0.4c-0.1,0.1-0.1,0.1-0.2,0.2c0,0,0-0.1,0-0.1c-0.3,0.2-0.8,0.4-1.3,0.7c0.1-0.8,0.3-1.6,1.2-1.1
						c-0.1-0.9-0.2-1.9-0.2-2.4c1.5,1.5,3.4,1.8,4.1,2.8c1.3-1.5,3.6-2.2,3.5-5.1c0.3-0.5,0.8,0.4,1.2,0.7c-0.2,0.4-0.5,0.5-0.5,0.9
						c0.6-1,2.6-1.5,2.1-3.3c1.5,0.2,0,1.8,1.5,0.8l0,0.6c4.4,1.3,3.2-6.6,8.2-4.7c-0.3-0.1-0.5-0.1-0.7-0.4
						c4.7-0.3,7.6-5.1,12.6-4.5c1.3,0,1-1.1,1.3-2.3l0.9,1.3l0.4-2.1c1.1-1.9,4.4,2.1,5.5-1.1l-0.7-0.8c0.8-0.2,2.1-1.6,2.5-0.5
						c0-0.2-0.2-1.1,0.3-0.7l0.3,0.7l1.3-2.1c1.7-0.1,1.1,3,3.2,2.2c0.6-0.6,1.3-3.1,0.7-3.4c-0.3,0.1-1-0.1-1.4-0.8l0.5-0.7
						c-0.8-2.2-1.3-4.6-3.7-5.3l-0.6,1.8L139.5,1l1-0.5c-1-0.7-1,0.3-1.1,1.1c-0.3-0.5-0.7-0.8-1-0.9L138,3.2
						c-0.5-0.8-0.2-1.9-1.2-2c-0.1,1.2,1.4,1.6,0.7,2.7c-1-0.7-1.2-1.6-1.5-0.4c-0.3-0.5-0.4-0.9-0.2-1.3c-0.3,0.9-1.5,1-1.3,2.3
						c-1.1-0.9-1.9,1.2-2.8-0.8c0,0.6-0.4,2.1-0.9,2.4c-0.1-2.9-2.1,0.8-3-1.9c0.2,2.5-2.3,2.2-3.1,4c0-0.2,0-0.6,0.2-0.6
						c-0.8,0.2-1.3-0.4-2-0.6c0.7,1.8-0.3,2.8-0.4,4.2c-1.7-1.3-0.4-2.3-1.4-3.9c0.7,1.4-0.9,2.2-0.1,3.2c-1.2-0.7-0.8-0.2-1.9-1.6
						c0.9,2.3-0.5,0.7-0.4,2.3c-1.5-0.6-1.2-2-2-0.8C115.8,10.1,116.5,8.8,116.5,8.8z M91.6,24.8C91.6,24.7,91.6,24.7,91.6,24.8
						c0.2-0.2,0.4-0.3,0.5-0.3C92,24.5,91.9,24.6,91.6,24.8z M89.4,25.8c0.3-0.1,0.6-0.2,1-0.4c0.3,0.4,0.4,0.9,0.2,1
						C90.5,26,89.9,26,89.4,25.8z M98.1,32.5c-0.3,0.3-0.5,0.1-0.7-0.1c0.2-0.1,0.3-0.2,0.5-0.4c0,0,0-0.1,0-0.2
						C98.1,32.1,98.1,32.3,98.1,32.5z"/>
					<path class="st0" d="M98,30.5c0-0.1,0-0.1,0.1-0.2c-0.1-0.1-0.2-0.1-0.3-0.2c0,0.2,0,0.3,0.1,0.5C97.9,30.6,98,30.6,98,30.5z"
						/>
					<path class="st0" d="M137.5,118.2L137.5,118.2c0,0,0,0.1,0,0.2C137.5,118.3,137.5,118.3,137.5,118.2z"/>
					<polygon class="st0" points="57.4,37.4 57.5,37.7 57.6,37.3 					"/>
					<path class="st0" d="M147.7,128.3c0,0.1,0,0.3,0,0.4C147.7,128.6,147.7,128.5,147.7,128.3z"/>
					<path class="st0" d="M152.8,131.1l0.5,0.8C153.2,131.4,153,131.2,152.8,131.1z"/>
					<path class="st0" d="M156.6,133.6c0.2-0.2,0.2-0.4,0.3-0.5c0,0,0,0,0,0L156.6,133.6z"/>
					<path class="st0" d="M91.2,104.8c-0.1,0-0.1,0-0.2,0C90.6,104.9,90.8,104.9,91.2,104.8z"/>
					<path class="st0" d="M111.9,110.9c-0.3,0.1-0.6,0.3-0.9,0.3C111.3,111.4,111.5,111.6,111.9,110.9z"/>
					<path class="st0" d="M69,96.3C69,96.3,69,96.3,69,96.3c0,0-0.1-0.1-0.1-0.1L69,96.3z"/>
					<path class="st0" d="M110.1,110.7c0.2,0.4,0.5,0.5,0.9,0.4C110.7,111,110.5,110.7,110.1,110.7z"/>
					<path class="st0" d="M174,142.4l0.2,0.1c0-0.1,0.1-0.1,0.1-0.2L174,142.4z"/>
					<path class="st0" d="M174.3,142.4l0.3,0C174.5,142.3,174.4,142.2,174.3,142.4z"/>
					<path class="st0" d="M175.2,142.2l-0.6,0.1C174.7,142.4,174.9,142.5,175.2,142.2z"/>
					<path class="st0" d="M168.9,139.3l-0.3,0.4C168.7,139.7,168.8,139.5,168.9,139.3z"/>
					<path class="st0" d="M167.2,138.7c0.3,0.3,0.5,1.4,1.2,1.4l0.2-0.3C168,140.3,167.9,138.1,167.2,138.7z"/>
					<path class="st0" d="M163,129.8l1.2,1c0-0.6,0-1.4,0.7-1.2C163.8,127.3,164.7,130.8,163,129.8z"/>
					<path class="st0" d="M159.1,127.1c0.8,0.1,0.3-0.7,0.5-1C158.9,126.3,158.7,126.4,159.1,127.1z"/>
					<path class="st0" d="M128.4,112.7l0.6-1.1C128.3,111.5,128.8,112,128.4,112.7z"/>
					<polygon class="st0" points="119.7,115.9 119.9,116.9 120.7,116 					"/>
					<polygon class="st0" points="120.1,106.1 120.4,106 119.2,106 					"/>
					<path class="st0" d="M68.2,82.4l-0.5,1.5C68.3,83.8,69.1,82.2,68.2,82.4z"/>
					<path class="st0" d="M45.3,73.4c0.1-0.8-0.3-1.6-1-1.1C44.7,72.7,44.9,73.5,45.3,73.4z"/>
					<polygon class="st0" points="56.7,51.6 56.4,52.2 57.1,51.5 					"/>
				</g>
			</g>
		</g>
	</g>
</g>
</svg>
