<?xml version="1.0" encoding="utf-8"?>
<!-- Generator: Adobe Illustrator 27.9.0, SVG Export Plug-In . SVG Version: 6.00 Build 0)  -->
<svg version="1.1" id="Layer_1" xmlns="http://www.w3.org/2000/svg" xmlns:xlink="http://www.w3.org/1999/xlink" x="0px" y="0px"
	 viewBox="0 0 841.89 595.28" style="enable-background:new 0 0 841.89 595.28;" xml:space="preserve">
<style type="text/css">
	.st0{fill:#FFFFFF;stroke:#000000;stroke-width:3;stroke-miterlimit:10;}
	.st1{fill:none;}
	.st2{font-family:'MyriadPro-Regular';}
	.st3{font-size:24px;}
</style>
<path class="st0" d="M326.3,130.52c1.12-18.3,13.5-36.66,25.64-49.76c23.28-25.11,64.89-28.68,96.89-22.09
	c25.18,5.19,47.73,19.87,57.08,44.67c3.29,8.71,4.83,18.02,5.21,27.3c3.14,77.32,0,374.66,0,374.66s-173.5,0-173.5,0
	c0-40.57,0-81.15,0-121.72c0-24.79,0-49.57,0-74.36c0-10.04,0-20.08,0-30.12c0-17.94-2.65-31.06,10.09-45.75
	c27.95-32.23,63.04-63.14,105.75-72.71c14.96-3.35,21.94-20.56,17.49-34.41c-16.86-52.4-95.91-32.35-112.39,9.11
	c-2.91,7.32-4.31,14.32-14.5,13.11c-4.73-0.56-10.72-3.12-14.19-6.47C327.01,139.2,326.02,135.19,326.3,130.52z"/>
<rect x="334.98" y="287.63" class="st1" width="180.87" height="173"/>
<text transform="matrix(1 0 0 1 384.4795 304.6682)"><tspan x="0" y="0" class="st2 st3">DO NOT</tspan><tspan x="-12.86" y="28.8" class="st2 st3">OBSTRUCT</tspan></text>
</svg>
