<?xml version="1.0" encoding="utf-8"?>
<!-- Generator: Adobe Illustrator 27.9.0, SVG Export Plug-In . SVG Version: 6.00 Build 0)  -->
<svg version="1.1" xmlns="http://www.w3.org/2000/svg" xmlns:xlink="http://www.w3.org/1999/xlink" x="0px" y="0px"
	 viewBox="0 0 841.89 595.28" style="enable-background:new 0 0 841.89 595.28;" xml:space="preserve">
<style type="text/css">
	.st0{fill:#2D2D2C;}
	.st1{fill:#FFFFFF;stroke:#000000;stroke-miterlimit:10;}
	.st2{fill-rule:evenodd;clip-rule:evenodd;fill:none;stroke:#010101;stroke-width:7;stroke-miterlimit:10;}
	.st3{fill:none;stroke:#010101;stroke-width:7;stroke-miterlimit:10;}
</style>
<g id="Layer_1">
	<g>
		<g>
			<path class="st0" d="M434.8,169.79c-3.72-1.14-7.49-2.1-11.21-3.22c-2.07-0.59-4.12-1.23-6.18-1.82
				c-1.78-0.31-4.66-1.6-5.74,0.52c-0.37,2.3,0.04,4.68-0.34,6.99c1.12-1.86,1.56-4,1.97-6.1c4.11,0.79,8.14,2.09,12.22,3.03
				c4.5,1.15,9.04,2.14,13.39,3.79c5.72,2.05,11.48,3.99,17.16,6.13c6.8,2.78,13.52,5.82,20.41,8.37c-0.62,1.87-0.68,3.86-1.03,5.78
				c0.64-1.15,1.2-2.37,1.72-3.58c0.72-1.56,2.25-3.41-0.49-3.83c-3.45-1.22-6.88-2.51-10.28-3.87
				C456.05,177.47,445.46,173.52,434.8,169.79L434.8,169.79L434.8,169.79z M476.57,187.05c0,0.03,0.01,0.05,0.01,0.08
				C476.57,187.11,476.57,187.08,476.57,187.05L476.57,187.05L476.57,187.05z"/>
			<path class="st0" d="M423.11,173.33c-2.52-0.73-5.15-1.21-7.78-1.06c2.85,1,5.53,2.41,8.33,3.54c2.21,0.9,4.49,1.63,6.75,2.41
				c10.97,3.54,21.8,7.55,32.91,10.64c1.32,0.32,2.68,0.54,4.04,0.66c-3.65-0.88-7.1-2.29-10.63-3.53
				c-7.8-2.74-15.52-5.75-23.23-8.73C430.02,175.98,426.69,174.31,423.11,173.33L423.11,173.33L423.11,173.33z"/>
			<path class="st0" d="M409.7,171.68c-1.96,3.39-4.8,6.2-6.51,9.74c-3.73,8.32-6,17.22-9.74,25.54c-2.12,4.78-3.21,9.91-4.84,14.87
				c-0.93,2.96-2.21,5.79-3.23,8.71c-2.14,6.04-3.77,12.24-5.31,18.46c-1.97,7.38-4.04,14.72-5.72,22.17
				c-1.18,5.33-2.74,10.56-4.21,15.81c-0.66,2.73-1.26,5.48-2.04,8.19c-1.48,5.74-3.69,11.13-5.35,16.77
				c-1.43,5.24-2.25,10.62-3.45,15.91c-1.45,6.18-3.35,12.24-4.49,18.49c-1.63,7.45-3.28,11.88,2.07,18.45
				c-0.53-2.09-1.28-4.14-1.4-6.32c-0.19-2.88,0.43-5.77,0.97-8.59c0.93-3.97,1.51-8.01,2.48-11.98c0.71-3.21,1.7-6.35,2.33-9.58
				c1.13-5.31,1.91-10.69,3.28-15.95c1.36-5.06,3.4-9.91,4.68-15c0.99-3.29,1.74-6.65,2.52-10c0.8-3.15,1.84-6.24,2.63-9.4
				c1.9-7.39,3.54-14.84,5.7-22.16c1.81-6.15,3.15-12.42,5.08-18.54c1.42-5.01,3.46-9.79,5.22-14.67c1.35-3.98,2.33-8.07,3.72-12.03
				c3.84-8.58,6.6-17.57,10.24-26.23C406.21,180.15,409.11,176.32,409.7,171.68L409.7,171.68L409.7,171.68z"/>
			<path class="st0" d="M354.88,363.28c-4.35,10.86-2.35,11.87,8.67,12.12c1.68,0.16,2.23-0.76,2.4-2.3
				c0.36-1.63-0.43,0.43-0.89,0.87c-0.5,0.77-2.68-0.3-3.52-0.37c-1.01-0.25-2.03-0.49-3.05-0.72c-1.24-0.43-3.67-0.35-3.69-2.09
				C354.81,368.29,354.98,365.77,354.88,363.28L354.88,363.28L354.88,363.28z"/>
			<path class="st0" d="M425.66,232.3c-3.91,4.86-5.32,11.15-7.64,16.83c-3.29,8.26-6.56,16.54-10.28,24.62
				c0.03-0.07,0.06-0.13,0.09-0.2c-4.3,9.07-8.29,18.27-12.3,27.46c-2.4,5.38-5.06,10.65-7.26,16.12
				c-2.01,4.79-3.57,9.75-5.33,14.63c-3.33,8.65-6.28,17.43-9.15,26.23c-0.66,1.98-1.36,3.94-2.22,5.85c-0.5,1-0.93,2.09-1.81,2.82
				c-2.26,1-4.86-0.03-7.22-0.13c4.35,2.46,8.83,4.23,11.14-1.67c2.6-6.33,4.13-13.04,6.35-19.51c1.62-4.92,3.49-9.75,5.19-14.63
				c1.83-5.58,3.71-11.14,6.02-16.55c6.93-15.58,14.07-31.08,21.13-46.61c3.62-8.82,7.47-17.57,10.6-26.58
				C423.99,238.14,424.58,235.13,425.66,232.3L425.66,232.3L425.66,232.3z M409,271.02c-0.03,0.06-0.06,0.13-0.09,0.19
				C408.94,271.14,408.97,271.08,409,271.02L409,271.02L409,271.02z"/>
			<path class="st0" d="M429.24,223.16c-0.5,3.78-2.67,7.07-3.65,10.72c-1.66,5.66-1.81,11.62-3.28,17.33
				c-1.2,4.84-2.44,9.66-3.53,14.52c-2.5,9.73-5.05,19.46-7.17,29.27c-1.32,6.71-3.08,13.32-4.58,19.98
				c-1.07,5.64-2.58,11.18-3.78,16.78c-0.66,3.29-1,6.65-1.82,9.91c-1.34,4.59-2.27,9.27-3.4,13.91c-0.57,1.86-1.06,3.76-1.79,5.56
				c-0.79,1.99-1.71,3.96-2.06,6.09c-0.69,4.33-0.96,7.18,3.98,8.77c-0.93-0.93-2.19-1.77-2.53-3.12c-0.26-2.02,0.54-4.02,0.93-5.98
				c0.56-2.17,1.58-4.17,2.28-6.29c1.04-3.21,1.87-6.47,2.52-9.78c0.62-3.27,1.61-6.44,2.34-9.68c0.84-4.08,1.3-8.22,2.2-12.29
				c2.66-12.68,5.95-25.22,8.49-37.93c1.52-6.19,3.12-12.37,4.64-18.56c1.11-4.05,2.24-8.11,3.07-12.23
				c1.85-6.84,3.62-13.71,4.51-20.75C427.36,233.99,430.62,228.69,429.24,223.16L429.24,223.16L429.24,223.16z M428.58,226
				c-0.01,0.02-0.01,0.04-0.02,0.06C428.56,226.05,428.57,226.02,428.58,226L428.58,226L428.58,226z"/>
			<path class="st0" d="M394.86,376.25c-0.92,2.51-2.86,6.16-0.63,8.45c2.72,2.23,6.49,2.81,9.91,2.93
				c1.82-0.41,1.84-3.53,2.34-5.01c-0.43,0.63-0.86,1.28-1.28,1.91c-0.78,1.1-0.88,1.85-2.38,1.26c-2.33-0.7-4.67-1.45-6.86-2.52
				C394.26,382.7,395.05,377.87,394.86,376.25L394.86,376.25L394.86,376.25z"/>
			<path class="st0" d="M400.98,378.16c1.86,1.16,3.9,2.11,6.07,2.49C405.45,379.01,403.31,377.9,400.98,378.16L400.98,378.16
				L400.98,378.16z"/>
			<path class="st0" d="M437.31,318.16c-3.65,4.9-5.25,10.85-7.3,16.51c-2.22,6.67-5.41,12.93-8.6,19.18
				c-2.6,5.51-4.79,11.21-7.05,16.86c-1.7,3.73-2.2,8.34-5.54,11.05c4.73-1.47,6.3-6.83,7.93-10.99c1.35-3.66,2.75-7.31,4.18-10.94
				c2.31-5.97,5.55-11.51,8.06-17.38C432.26,334.54,434.65,326.29,437.31,318.16L437.31,318.16L437.31,318.16z"/>
			<path class="st0" d="M475.87,192.3c-0.28,2.79-1.01,5.52-1.75,8.22c-1.1,4.16-1.96,8.38-3.25,12.49
				c-1.27,4.73-2.25,9.53-3.58,14.25c-2.11,7.31-4.23,14.62-6.36,21.92c-5.65,19.32-13.16,38.04-19.06,57.28
				c-0.97,3.13-1.85,6.27-2.77,9.41c2.26-3.5,3.71-7.47,4.92-11.44c3.79-13.46,9.01-26.47,13.36-39.75
				c4.53-13.07,8.41-26.35,12.38-39.6c1.43-5.27,2.66-10.59,4.37-15.78C475.68,203.83,477.6,197.95,475.87,192.3L475.87,192.3
				L475.87,192.3z"/>
		</g>
	</g>
</g>
<g id="Layer_2">
	<g>
		<path class="st1" d="M337.3,226.78c0,0,12.22-29.77,46.03-16.82c1.76,0.67,3.57,1.46,5.45,2.37
			c37.95,18.5,15.63,52.17,15.63,52.17l7.75,24.3c0,0-21.11,4.31-29.73-13.96c0,0-5.52-10.93-5.6-25.62l27.58,15.29L337.3,226.78z"
			/>
		<path class="st1" d="M382.89,208.63c0,0,5.34-7.48,10.67-1.8c5.33,5.68,2.12,8.78,2.12,8.78"/>
		<path class="st1" d="M382.76,210.97c0,0-19.55,2.65-27.25,24.55"/>
		<path class="st1" d="M392.85,216.26c0,0,7.63,15.17-8.16,34.3"/>
	</g>
	<circle class="st2" cx="404.01" cy="262.11" r="139.71"/>
	<line class="st3" x1="309.27" y1="159.44" x2="503.14" y2="364.8"/>
</g>
</svg>
