<?xml version="1.0" encoding="utf-8"?>
<!-- Generator: Adobe Illustrator 27.9.0, SVG Export Plug-In . SVG Version: 6.00 Build 0)  -->
<svg version="1.1" id="Layer_1" xmlns="http://www.w3.org/2000/svg" xmlns:xlink="http://www.w3.org/1999/xlink" x="0px" y="0px"
	 viewBox="0 0 841.89 595.28" style="enable-background:new 0 0 841.89 595.28;" xml:space="preserve">
<style type="text/css">
	.st0{fill:#FFFFFF;stroke:#000000;stroke-width:2;stroke-miterlimit:10;}
	.st1{fill:none;stroke:#000000;stroke-width:2;stroke-miterlimit:10;}
</style>
<polygon class="st0" points="203.97,309.81 381.88,131.9 405.05,155.07 225.87,334.25 188.1,351.07 "/>
<line class="st1" x1="203.97" y1="309.81" x2="225.87" y2="334.25"/>
<polygon points="188.17,350.85 205.99,343.16 195.15,332.74 "/>
<line class="st1" x1="208.7" y1="315.1" x2="386.89" y2="136.91"/>
<line class="st1" x1="213.1" y1="319.49" x2="391.28" y2="141.3"/>
<line class="st1" x1="217.25" y1="323.65" x2="395.44" y2="145.46"/>
<line class="st1" x1="221.06" y1="328.5" x2="399.48" y2="149.5"/>
<g>
	
		<rect x="280.65" y="312.53" transform="matrix(0.9049 -0.4256 0.4256 0.9049 -94.6473 242.1548)" class="st1" width="427.89" height="40.72"/>
	<line class="st1" x1="306.59" y1="398.81" x2="312.14" y2="410.61"/>
	<line class="st1" x1="320.14" y1="392.44" x2="328.8" y2="410.86"/>
	<line class="st1" x1="334.09" y1="385.87" x2="339.64" y2="397.67"/>
	<line class="st1" x1="347.64" y1="379.5" x2="356.3" y2="397.93"/>
	<line class="st1" x1="362.21" y1="372.65" x2="367.76" y2="384.45"/>
	<line class="st1" x1="375.76" y1="366.28" x2="384.42" y2="384.7"/>
	<line class="st1" x1="389.71" y1="359.71" x2="395.26" y2="371.51"/>
	<line class="st1" x1="403.26" y1="353.34" x2="411.93" y2="371.77"/>
	<line class="st1" x1="419.37" y1="345.76" x2="424.92" y2="357.56"/>
	<line class="st1" x1="432.92" y1="339.39" x2="441.59" y2="357.82"/>
	<line class="st1" x1="446.88" y1="332.83" x2="452.43" y2="344.63"/>
	<line class="st1" x1="460.42" y1="326.46" x2="469.09" y2="344.88"/>
	<line class="st1" x1="475" y1="319.6" x2="480.54" y2="331.4"/>
	<line class="st1" x1="488.54" y1="313.23" x2="497.21" y2="331.66"/>
	<line class="st1" x1="502.5" y1="306.67" x2="508.05" y2="318.46"/>
	<line class="st1" x1="516.04" y1="300.3" x2="524.71" y2="318.72"/>
	<line class="st1" x1="526.1" y1="295.57" x2="531.65" y2="307.36"/>
	<line class="st1" x1="539.65" y1="289.19" x2="548.31" y2="307.62"/>
	<line class="st1" x1="553.61" y1="282.63" x2="559.15" y2="294.43"/>
	<line class="st1" x1="567.15" y1="276.26" x2="575.82" y2="294.68"/>
	<line class="st1" x1="581.72" y1="269.4" x2="587.27" y2="281.2"/>
	<line class="st1" x1="595.27" y1="263.03" x2="603.94" y2="281.46"/>
	<line class="st1" x1="609.23" y1="256.47" x2="614.78" y2="268.27"/>
	<line class="st1" x1="622.77" y1="250.1" x2="631.44" y2="268.52"/>
	<line class="st1" x1="638.89" y1="242.52" x2="644.43" y2="254.32"/>
	<line class="st1" x1="652.43" y1="236.15" x2="661.1" y2="254.57"/>
	<line class="st1" x1="666.39" y1="229.58" x2="671.94" y2="241.38"/>
</g>
<g>
	<path class="st1" d="M469.45,238.92l-67.91-15.27l-13.27-2.98c-8.39-1.89-16.81,3.43-18.69,11.83l-8.83,39.26
		c-1.88,8.39,3.44,16.8,11.83,18.69l14.3,3.22l68.08,15.29"/>
	<line class="st1" x1="401.55" y1="223.66" x2="386.89" y2="293.68"/>
	<line class="st1" x1="454.43" y1="310.03" x2="469.73" y2="237.63"/>
</g>
</svg>
