<?xml version="1.0" encoding="utf-8"?>
<!-- Generator: Adobe Illustrator 27.9.0, SVG Export Plug-In . SVG Version: 6.00 Build 0)  -->
<svg version="1.1" id="Layer_1" xmlns="http://www.w3.org/2000/svg" xmlns:xlink="http://www.w3.org/1999/xlink" x="0px" y="0px"
	 viewBox="0 0 841.89 595.28" style="enable-background:new 0 0 841.89 595.28;" xml:space="preserve">
<style type="text/css">
	.st0{fill:#FFFFFF;stroke:#000000;stroke-width:5;stroke-miterlimit:10;}
	.st1{fill:none;stroke:#000000;stroke-width:5;stroke-miterlimit:10;}
	.st2{fill:none;stroke:#000000;stroke-width:10;stroke-miterlimit:10;}
</style>
<path class="st0" d="M343.96,354.65c-9.87-32.27-19.73-64.53-29.6-96.8c-3.74-12.24-7.49-24.48-11.23-36.72
	c-3.86-12.64-10.85-26.51-1.15-38.39c8.42-10.3,23.74-12.49,35.85-16.19c11.16-3.41,22.33-6.83,33.49-10.24
	c15.86-4.85,31.73-9.62,47.56-14.49c6.31-1.94,13.4-2.67,19.32,0.26c10.78,5.36,13.02,19.02,16.23,29.51
	c2.92,9.54,5.83,19.08,8.75,28.63c7.06,23.09,14.12,46.18,21.18,69.27c3.94,12.87,7.87,25.75,11.81,38.62
	c0,0.01,10.72,35.05,10.72,35.05s5.19,24.14-21.46,30.1l-96.13,29.39c0,0-27.09,12.66-32.91-6.36
	C356.39,396.3,343.96,354.65,343.96,354.65z"/>
<line class="st1" x1="344.02" y1="355.86" x2="496.51" y2="309.24"/>
<circle class="st1" cx="424.86" cy="362.21" r="10.33"/>
<line class="st2" x1="247.4" y1="154.52" x2="575.63" y2="406.79"/>
<g>
	<g>
		<path d="M431.8,129.75c0.01,0.03-0.5,1.48-0.5,1.48c-0.03-0.04,0.44-0.07,0.28-0.09c0.56,0.07,1.2-0.03,1.77-0.02
			c1.02,0.02,2.04,0.08,3.05,0.22c2.2,0.31,4.38,0.91,6.45,1.7c4.01,1.54,7.59,4.12,10.46,7.3c2.16,2.39,5.69-1.15,3.54-3.54
			c-3.99-4.41-9.21-7.64-14.9-9.35c-2.84-0.85-5.84-1.31-8.8-1.35c-1.45-0.02-2.93,0.01-4.23,0.73c-1.58,0.87-2.39,2.45-1.94,4.23
			C427.76,134.2,432.58,132.88,431.8,129.75L431.8,129.75z"/>
	</g>
</g>
<g>
	<g>
		<path d="M432.93,119.61c9.34-2.44,19.37-0.58,27.31,4.88c1.11,0.77,2.77,0.21,3.42-0.9c0.72-1.24,0.22-2.65-0.9-3.42
			c-9.01-6.19-20.6-8.13-31.16-5.38C428.49,115.6,429.81,120.42,432.93,119.61L432.93,119.61z"/>
	</g>
</g>
<g>
	<g>
		<path d="M344.38,400.03c-2.62,4.11,0.86,8.93,3.6,11.95c2.72,3,6.17,5.38,9.85,7.06c8.85,4.02,18.68,4.19,28.19,3.15
			c1.34-0.15,2.5-1.04,2.5-2.5c0-1.24-1.15-2.65-2.5-2.5c-8.18,0.9-16.68,1.04-24.47-1.97c-3.06-1.18-5.99-2.93-8.41-5.15
			c-1.26-1.15-2.41-2.42-3.35-3.83c-0.64-0.95-1.82-2.54-1.09-3.68C350.44,399.83,346.11,397.32,344.38,400.03L344.38,400.03z"/>
	</g>
</g>
<g>
	<g>
		<path d="M333.84,416.36c7.61,10.59,20.81,14.69,33.37,14.99c3.22,0.08,3.22-4.92,0-5c-10.62-0.25-22.55-3.46-29.05-12.51
			c-0.79-1.09-2.18-1.62-3.42-0.9C333.65,413.58,333.05,415.26,333.84,416.36L333.84,416.36z"/>
	</g>
</g>
<circle class="st2" cx="406.42" cy="287.27" r="207.14"/>
</svg>
