<?xml version="1.0" encoding="utf-8"?>
<!-- Generator: Adobe Illustrator 27.9.0, SVG Export Plug-In . SVG Version: 6.00 Build 0)  -->
<svg version="1.1" id="Layer_1" xmlns="http://www.w3.org/2000/svg" xmlns:xlink="http://www.w3.org/1999/xlink" x="0px" y="0px"
	 viewBox="0 0 841.89 595.28" style="enable-background:new 0 0 841.89 595.28;" xml:space="preserve">
<style type="text/css">
	.st0{fill:none;stroke:#000000;stroke-width:10;stroke-miterlimit:10;}
</style>
<circle class="st0" cx="435.59" cy="269.65" r="158.38"/>
<g>
	<g>
		<path d="M435.83,271.89c3.22,0,3.22-5,0-5C432.61,266.89,432.6,271.89,435.83,271.89L435.83,271.89z"/>
	</g>
</g>
<g>
	<g>
		<path d="M437.71,268.87c-0.12-20.88-0.43-41.76-0.94-62.64c-0.25-10.48-0.56-20.96-0.91-31.43c-0.18-5.24-0.36-10.48-0.57-15.71
			c-0.05-1.25-0.1-2.49-0.15-3.74c-0.06-1.42,0.16-3.04-0.93-4.12c-1.66-1.65-4.14-1.31-5.9-0.04c-2.23,1.6-3.61,4.25-5.14,6.46
			c-1.64,2.37-3.28,4.74-4.92,7.1c-3.33,4.8-6.65,9.61-9.98,14.41c-0.77,1.11-0.21,2.78,0.9,3.42c1.24,0.73,2.65,0.22,3.42-0.9
			c3.42-4.94,6.84-9.88,10.26-14.82c1.69-2.44,3.37-4.87,5.06-7.31c0.79-1.14,1.53-2.38,2.4-3.46c0.23-0.28,0.51-0.59,0.81-0.8
			c0.02-0.02,0.28-0.2,0.27-0.19c0.37-0.08,0.39-0.1,0.04-0.08c-0.23,0.04-0.44-0.01-0.64-0.17c-0.24-0.59-0.49-1.18-0.73-1.77
			c1.2,30.09,2.01,60.2,2.41,90.31c0.11,8.49,0.19,16.97,0.24,25.46C432.73,272.08,437.73,272.09,437.71,268.87L437.71,268.87z"/>
	</g>
</g>
<g>
	<g>
		<path d="M429.97,154.94c13.71,5.23,25.46,15.2,32.99,27.77c1.65,2.76,5.98,0.25,4.32-2.52c-8.24-13.75-21.03-24.36-35.98-30.06
			c-1.26-0.48-2.74,0.53-3.08,1.75C427.83,153.27,428.7,154.46,429.97,154.94L429.97,154.94z"/>
	</g>
</g>
<g>
	<g>
		<path d="M435.29,266.27c-8.76,0.77-17.49-0.37-26.23-0.77c-8.9-0.41-17.75,0.38-26.6,1.23c-1.34,0.13-2.5,1.06-2.5,2.5
			c0,1.25,1.15,2.63,2.5,2.5c8.85-0.85,17.7-1.64,26.6-1.23c8.74,0.4,17.48,1.55,26.23,0.77c1.34-0.12,2.5-1.06,2.5-2.5
			C437.79,267.51,436.65,266.16,435.29,266.27L435.29,266.27z"/>
	</g>
</g>
<g>
	<g>
		<path d="M381.85,270.67c6.02-4.61,12.4-8.72,19.08-12.29c1.19-0.64,1.56-2.29,0.9-3.42c-0.7-1.2-2.23-1.54-3.42-0.9
			c-6.68,3.58-13.06,7.68-19.08,12.29c-1.07,0.82-1.64,2.15-0.9,3.42C379.04,270.83,380.77,271.5,381.85,270.67L381.85,270.67z"/>
	</g>
</g>
<g>
	<g>
		<path d="M380.7,271.94c5.56,2.59,9.83,5.83,13.81,10.45c0.86,1,2.67,0.94,3.54,0c0.97-1.06,0.91-2.47,0-3.54
			c-4.07-4.73-9.17-8.6-14.82-11.24c-1.18-0.55-2.75-0.37-3.42,0.9C379.22,269.62,379.43,271.35,380.7,271.94L380.7,271.94z"/>
	</g>
</g>
<g>
	<g>
		<path d="M429.86,117.43c-2.91,1.66-2.33,5.51-2.31,8.32c0.02,3.2,0.03,6.4,0.05,9.6c0.01,1.31,1.15,2.56,2.5,2.5
			c1.35-0.06,2.51-1.1,2.5-2.5c-0.01-2.78-0.03-5.56-0.04-8.34c-0.01-1.36-0.01-2.73-0.02-4.09c0-0.29-0.01-0.59,0-0.89
			c0.01-0.15,0.12-0.75-0.01-0.18c0.01-0.07,0.19-0.53,0.16-0.59c0.15,0.25-0.78,0.76-0.3,0.49c1.14-0.65,1.62-2.29,0.9-3.42
			C432.54,117.18,431.07,116.74,429.86,117.43L429.86,117.43z"/>
	</g>
</g>
<g>
	<g>
		<path d="M498.83,158.37c-0.15-0.66,0.01,0.31,0-0.06c-0.01-0.29-0.15,0.42,0-0.02c0.19-0.55-0.29,0.35,0.05-0.14
			c0.08-0.11,0.14-0.24,0.22-0.35c-0.29,0.44,0.1-0.09,0.16-0.15c0.13-0.13,0.27-0.26,0.41-0.39c0.06-0.06,0.47-0.37,0.12-0.12
			c0.16-0.12,0.32-0.23,0.48-0.34c1.5-1,3.17-1.76,4.71-2.7c3.47-2.12,6.71-4.65,9.63-7.48c0.97-0.94,0.94-2.59,0-3.54
			c-0.97-0.97-2.56-0.94-3.54,0c-3.11,3.02-6.32,5.43-10.12,7.58c-3.45,1.95-8.02,4.25-6.96,9.03c0.29,1.32,1.82,2.09,3.08,1.75
			C498.44,161.07,499.12,159.7,498.83,158.37L498.83,158.37z"/>
	</g>
</g>
<g>
	<g>
		<path d="M532.36,218.83c5.01-2.88,8.68-7.33,12.78-11.29c3.73-3.6,8.36-6.95,13.79-6.5c1.35,0.11,2.5-1.23,2.5-2.5
			c0-1.45-1.15-2.39-2.5-2.5c-6.14-0.51-11.72,2.87-16.12,6.83c-4.32,3.89-7.87,8.7-12.97,11.63
			C527.04,216.12,529.56,220.44,532.36,218.83L532.36,218.83z"/>
	</g>
</g>
<g>
	<g>
		<path d="M546.81,263.74c8.9-0.33,17.81-0.39,26.71-0.18c3.22,0.08,3.22-4.92,0-5c-8.9-0.21-17.81-0.15-26.71,0.18
			C543.6,258.86,543.59,263.86,546.81,263.74L546.81,263.74z"/>
	</g>
</g>
<g>
	<g>
		<path d="M534.13,316.95c9.59,5.5,19.04,11.22,28.36,17.16c2.72,1.74,5.23-2.59,2.52-4.32c-9.32-5.94-18.77-11.67-28.36-17.16
			C533.86,311.02,531.33,315.34,534.13,316.95L534.13,316.95z"/>
	</g>
</g>
<g>
	<g>
		<path d="M492.18,351.25c4.65,5.96,9.61,11.68,14.87,17.11c2.63,2.72,5.33,5.36,8.11,7.93c1.33,1.23,2.68,2.45,4.04,3.65
			c0.68,0.6,1.37,1.19,2.06,1.78c0.34,0.29,0.74,0.77,1.13,0.98c0.12,0.11,0.13,0.12,0.03,0.05c-0.2-0.51-0.07-1.02,0.39-1.55
			c0.37-0.21,0.74-0.43,1.1-0.64c-0.07,0.02-0.15,0.04-0.22,0.06c-3.09,0.86-1.78,5.69,1.33,4.82c2.38-0.67,2.84-3.25,1.71-5.21
			c-0.96-1.66-2.92-2.86-4.34-4.12c-3.23-2.85-6.37-5.81-9.42-8.85c-6.15-6.15-11.91-12.68-17.26-19.54c-0.83-1.07-2.66-0.87-3.54,0
			C491.13,348.76,491.34,350.18,492.18,351.25L492.18,351.25z"/>
	</g>
</g>
<g>
	<g>
		<path d="M440.13,365.72c0,10.99,0,21.99,0,32.98c0,3.22,5,3.22,5,0c0-10.99,0-21.99,0-32.98
			C445.13,362.51,440.13,362.5,440.13,365.72L440.13,365.72z"/>
	</g>
</g>
<g>
	<g>
		<path d="M363.44,382.03c5.4-7.6,10.24-15.57,14.51-23.85c1.47-2.86-2.84-5.39-4.32-2.52c-4.27,8.29-9.11,16.25-14.51,23.85
			c-0.78,1.1-0.2,2.78,0.9,3.42C361.27,383.66,362.66,383.13,363.44,382.03L363.44,382.03z"/>
	</g>
</g>
<g>
	<g>
		<path d="M318.55,331.89c0.06-0.09,0.46-0.57,0.06-0.1c0.12-0.14,0.24-0.29,0.36-0.42c0.23-0.25,0.47-0.48,0.73-0.71
			c0.06-0.05,0.54-0.43,0.25-0.21c-0.3,0.22,0.14-0.09,0.2-0.13c0.31-0.21,0.63-0.41,0.95-0.6c0.63-0.37,1.29-0.69,1.96-0.99
			c0.15-0.07,0.3-0.13,0.44-0.2c0.22-0.1,0.52-0.22,0.12-0.05c0.36-0.15,0.73-0.3,1.09-0.45c2.99-1.22,6.11-2.46,8.3-4.95
			c0.87-0.98,1.04-2.58,0-3.54c-0.95-0.87-2.61-1.05-3.54,0c-0.25,0.28-0.51,0.56-0.8,0.81c-0.14,0.13-0.29,0.24-0.43,0.37
			c0.44-0.4,0-0.01-0.1,0.07c-0.6,0.42-1.23,0.79-1.88,1.13c-0.66,0.34-1.35,0.65-2.03,0.94c0.55-0.24,0,0-0.13,0.05
			c-0.18,0.07-0.36,0.15-0.55,0.22c-0.36,0.15-0.73,0.3-1.09,0.45c-3.21,1.33-6.23,2.84-8.24,5.8c-0.74,1.08-0.24,2.82,0.9,3.42
			C316.39,333.45,317.76,333.04,318.55,331.89L318.55,331.89z"/>
	</g>
</g>
<g>
	<g>
		<path d="M292.26,275.78c8.36,1.15,16.73,2.29,25.09,3.44c1.34,0.18,2.68-0.32,3.08-1.75c0.32-1.17-0.4-2.89-1.75-3.08
			c-8.36-1.15-16.73-2.29-25.09-3.44c-1.34-0.18-2.68,0.32-3.08,1.75C290.19,273.87,290.91,275.6,292.26,275.78L292.26,275.78z"/>
	</g>
</g>
<g>
	<g>
		<path d="M314.26,207.89c0.74-0.63,2.75,0.6,3.46,1.01c2.19,1.27,4.32,2.64,6.48,3.95c4.33,2.64,8.66,5.29,12.99,7.93
			c2.75,1.68,5.27-2.64,2.52-4.32c-5.04-3.08-10.08-6.16-15.12-9.23c-3.99-2.44-9.39-6.7-13.87-2.89c-1.03,0.88-0.9,2.63,0,3.54
			C311.74,208.91,313.23,208.77,314.26,207.89L314.26,207.89z"/>
	</g>
</g>
<g>
	<g>
		<path d="M354.64,151.83c1.8,0.17,3.24,2.34,4.26,3.62c1.71,2.14,3.4,4.29,5.08,6.46c3.42,4.42,6.75,8.89,10.03,13.41
			c0.79,1.09,2.17,1.63,3.42,0.9c1.08-0.63,1.69-2.32,0.9-3.42c-3.68-5.08-7.46-10.1-11.3-15.06c-1.79-2.31-3.56-4.67-5.45-6.89
			c-1.85-2.16-4.04-3.74-6.93-4.02c-1.35-0.13-2.5,1.24-2.5,2.5C352.14,150.79,353.29,151.69,354.64,151.83L354.64,151.83z"/>
	</g>
</g>
</svg>
