<?xml version="1.0" encoding="utf-8"?>
<!-- Generator: Adobe Illustrator 27.9.0, SVG Export Plug-In . SVG Version: 6.00 Build 0)  -->
<svg version="1.1" id="Layer_1" xmlns="http://www.w3.org/2000/svg" xmlns:xlink="http://www.w3.org/1999/xlink" x="0px" y="0px"
	 viewBox="0 0 841.89 595.28" style="enable-background:new 0 0 841.89 595.28;" xml:space="preserve">
<g>
	<g>
		<path d="M248.94,208.8c2.58-12.25,5.93-24.34,10.37-36.05c0.52-1.36,1.04-2.72,1.59-4.06c0.17-0.42,0.34-0.84,0.51-1.26
			c0.1-0.24,0.55-1.35,0.15-0.36c-0.4,0.99,0.05-0.12,0.15-0.36c0.18-0.42,0.36-0.83,0.54-1.25c1.27-2.9,2.61-5.76,4.03-8.59
			c2.78-5.51,5.86-10.88,9.29-16.01c0.79-1.18,1.6-2.35,2.42-3.5c0.41-0.58,0.83-1.15,1.25-1.72c0.26-0.36,0.53-0.71,0.79-1.06
			c0.61-0.8,0.57-0.51-0.04,0.05c1.06-0.97,1.9-2.39,2.83-3.49c1.02-1.21,2.06-2.4,3.13-3.57c2.01-2.2,4.11-4.33,6.3-6.36
			c1.09-1.02,2.21-2.01,3.34-2.98c0.54-0.46,1.08-0.91,1.62-1.35c0.43-0.35,2.51-2.09,0.97-0.8c4.8-4.01,10.51-7.27,16.09-10.03
			c1.55-0.77,3.13-1.48,4.72-2.18c1.02-0.45-1.14,0.45-0.1,0.05c0.38-0.15,0.76-0.31,1.13-0.46c0.95-0.37,1.9-0.73,2.86-1.08
			c3.26-1.18,6.58-2.19,9.94-3.04c3.47-0.88,6.98-1.59,10.51-2.14c0.5-0.08,2.84-0.51,1.05-0.17c0.8-0.15,1.63-0.2,2.44-0.29
			c1.83-0.2,3.67-0.36,5.52-0.48c7.06-0.45,14.17-0.3,21.21,0.39c0.81,0.08,1.63,0.17,2.44,0.26c0.53,0.06,1.06,0.11,1.59,0.2
			c-0.28-0.05-1.53-0.22-0.08-0.01c1.91,0.28,3.82,0.58,5.73,0.93c3.59,0.66,7.16,1.44,10.69,2.35c7.19,1.84,14.25,4.16,21.16,6.87
			c0.8,0.31,1.6,0.63,2.4,0.96c0.4,0.16,0.8,0.33,1.2,0.49c0.2,0.08,1.46,0.61,0.6,0.25c-1.03-0.44,0.92,0.4,0.89,0.38
			c0.4,0.17,0.79,0.34,1.19,0.52c0.89,0.39,1.77,0.79,2.66,1.19c3.43,1.57,6.83,3.22,10.19,4.95c6.36,3.27,12.68,6.74,18.62,10.73
			c1.46,0.98,2.88,2.02,4.3,3.06c0.9,0.66-0.9-0.75-0.05-0.03c0.32,0.27,0.64,0.52,0.96,0.78c0.8,0.66,1.58,1.33,2.35,2.02
			c1.3,1.18,2.56,2.4,3.76,3.69c0.53,0.57,1.04,1.14,1.55,1.73c0.25,0.29,0.49,0.57,0.73,0.86c0.27,0.32,1.42,1.64,0.22,0.25
			c2.03,2.37,3.66,5.25,5.15,7.98c0.72,1.31,1.39,2.64,2.02,3.99c0.31,0.66,0.7,1.35,0.92,2.05c-0.49-1.55-0.25-0.61-0.1-0.24
			c0.21,0.52,0.42,1.04,0.62,1.57c2.36,6.12,4.02,12.49,5.29,18.93c0.65,3.3,1.19,6.61,1.67,9.94c0.07,0.51,0.45,2.81,0.12,0.85
			c0.12,0.75,0.2,1.52,0.29,2.27c0.22,1.74,0.42,3.48,0.61,5.22c0.88,7.97,1.59,16.01,0.95,24.02c-0.07,0.91-0.19,1.81-0.27,2.72
			c-0.1,1.1,0.22-1.35,0.04-0.26c-0.06,0.38-0.12,0.77-0.18,1.15c-0.28,1.71-0.63,3.41-1.03,5.1c-0.79,3.26-1.8,6.46-3.01,9.59
			c-0.18,0.45-1.01,2.58-0.33,0.87c-0.28,0.71-0.61,1.41-0.93,2.1c-0.72,1.57-1.49,3.13-2.3,4.66c-1.54,2.92-3.22,5.76-5.02,8.52
			c-1.87,2.88-3.86,5.68-5.94,8.41c-0.14,0.19-0.92,1.19-0.32,0.41c0.61-0.77-0.18,0.22-0.33,0.41c-0.55,0.7-1.11,1.39-1.67,2.08
			c-1.13,1.38-2.27,2.75-3.44,4.1c-8.79,10.22-18.56,19.51-27.89,29.22c-9.58,9.96-18.86,20.47-26.12,32.28
			c-3.69,6-6.77,12.39-9.15,19.03c-2.42,6.74-3.71,13.72-4.65,20.8c-0.92,6.9-1.35,13.84-1.9,20.77c-0.26,3.35-0.55,6.69-0.95,10.03
			c-0.05,0.39-0.09,0.78-0.14,1.17c-0.17,1.43,0.04-0.02,0.04-0.25c0,0.75-0.22,1.57-0.34,2.32c-0.27,1.72-0.58,3.44-0.93,5.15
			c-0.69,3.29-1.56,6.54-2.69,9.71c-0.26,0.72-0.55,1.43-0.81,2.15c-0.37,1.01,0.54-1.18,0.09-0.2c-0.16,0.35-0.31,0.7-0.47,1.05
			c-0.73,1.59-1.54,3.14-2.42,4.64c-0.7,1.19-1.45,2.35-2.26,3.47c-0.18,0.25-0.41,0.51-0.57,0.77c0.08-0.14,1.11-1.36,0.29-0.39
			c-0.51,0.61-1.02,1.23-1.55,1.82c-1.83,2.04-3.92,3.7-5.92,5.55c1.5-1.4,0.09-0.08-0.39,0.26c-0.52,0.37-1.05,0.73-1.58,1.08
			c-1.2,0.79-2.44,1.53-3.7,2.22c-1.2,0.65-2.42,1.26-3.66,1.81c-1.71,0.76,1.32-0.51-0.42,0.18c-0.75,0.29-1.5,0.57-2.26,0.83
			c-2.58,0.89-5.22,1.58-7.91,2.06c-0.71,0.13-1.43,0.21-2.14,0.34c0.15-0.03,1.87-0.21,0.56-0.09c-0.32,0.03-0.64,0.07-0.96,0.1
			c-1.43,0.13-2.87,0.21-4.31,0.22c-1.28,0.01-2.55-0.03-3.83-0.11c-0.64-0.04-1.27-0.1-1.91-0.17c-0.27-0.03-0.67-0.13-0.95-0.11
			c1.97-0.12,0.77,0.1,0.1-0.01c-2.67-0.45-5.31-1.13-7.86-2.05c-0.38-0.14-0.75-0.28-1.12-0.42c-0.27-0.1-1.29-0.45-0.22-0.08
			c1.06,0.38,0.06,0.02-0.21-0.1c-0.31-0.14-0.62-0.29-0.93-0.44c-1.42-0.68-2.8-1.44-4.14-2.26c-1.26-0.77-2.48-1.62-3.68-2.49
			c-0.47-0.34-0.95-0.35,0.28,0.22c-0.25-0.12-0.62-0.5-0.81-0.66c-0.67-0.56-1.33-1.13-1.97-1.72c-1.03-0.94-2.02-1.93-2.97-2.95
			c-0.48-0.51-0.94-1.03-1.4-1.56c-0.35-0.4-2.16-2.46-0.81-0.93c-1.93-2.19-3.47-4.95-4.84-7.5c-0.71-1.32-1.33-2.67-1.97-4.02
			c-0.44-0.94,0.52,1.3,0.14,0.34c-0.13-0.33-0.26-0.65-0.39-0.98c-0.32-0.82-0.62-1.65-0.9-2.48c-0.95-2.83-1.69-5.73-2.18-8.68
			c-0.06-0.35-0.11-0.69-0.16-1.04c-0.19-1.13,0.19,1.93,0.03,0.17c-0.07-0.72-0.15-1.43-0.2-2.15c-0.13-1.73-0.18-3.47-0.15-5.2
			c0.02-1.54,0.1-3.08,0.25-4.61c0.07-0.76,0.13-1.54,0.25-2.29c-0.29,1.74-0.09,0.66-0.02,0.28c0.1-0.57,0.19-1.14,0.29-1.71
			c0.6-3.22,1.44-6.4,2.52-9.49c0.28-0.82,0.58-1.64,0.9-2.45c0.14-0.36,0.29-0.72,0.43-1.08c0.39-1.01-0.54,1.17-0.08,0.19
			c0.74-1.58,1.46-3.16,2.28-4.7c1.5-2.82,3.19-5.55,5.05-8.14c0.3-0.42,1.48-2.18,0.57-0.81c0.42-0.64,0.97-1.22,1.46-1.81
			c1.12-1.34,2.29-2.63,3.49-3.88c2.72-2.83,3.02-7.83,0-10.61c-2.95-2.7-7.7-3.02-10.61,0c-10.15,10.56-17.67,24.05-20.42,38.5
			c-2.76,14.48-1.01,29.09,5.52,42.34c5.84,11.85,15.89,22.36,28.05,27.74c11.98,5.3,25.25,6.23,37.93,2.92
			c11.82-3.08,23.03-9.9,30.61-19.56c9.4-11.99,12.68-26.63,14.25-41.49c0.74-7.01,1.11-14.05,1.76-21.06
			c0.17-1.78,0.35-3.56,0.56-5.33c0.05-0.39,0.1-0.79,0.14-1.18c0.18-1.44-0.04,0.01-0.03,0.23c-0.04-0.93,0.29-2.01,0.44-2.93
			c0.57-3.49,1.3-6.95,2.27-10.34c0.45-1.58,0.95-3.14,1.5-4.68c0.29-0.81,0.59-1.62,0.9-2.43c0.14-0.36,0.28-0.71,0.43-1.07
			c0.72-1.81-0.66,1.46,0.14-0.32c1.41-3.14,2.94-6.21,4.66-9.19c1.67-2.91,3.49-5.74,5.41-8.49c0.94-1.35,1.9-2.67,2.89-3.99
			c0.23-0.3,0.45-0.63,0.7-0.93c-1.07,1.26-0.19,0.24,0.07-0.09c0.6-0.76,1.21-1.52,1.82-2.28c17.96-22.09,40.81-39.81,56.42-63.86
			c8.1-12.48,13.68-26.44,15.02-41.33c0.74-8.24,0.01-16.52-0.89-24.71c-0.81-7.36-1.75-14.72-3.17-21.99
			c-2.64-13.55-7.18-27.27-15.64-38.36c-9.61-12.6-23.2-20.76-37.08-27.95c-27.53-14.27-58.38-24.02-89.69-22.09
			c-15.56,0.96-30.76,4.58-44.84,11.31c-12.09,5.79-23.03,14.18-32.1,24.02c-18.04,19.57-29.42,44.44-36.69,69.82
			c-1.74,6.08-3.24,12.23-4.54,18.42c-0.81,3.83,1.12,8.29,5.24,9.23C243.48,214.89,248.08,212.9,248.94,208.8L248.94,208.8z"/>
	</g>
</g>
<g>
	<g>
		<path d="M429.65,206.08c5.43-11.9,8.9-25.12,7.44-38.28c-1.33-11.92-5.9-23.44-14.43-32.08c-8.47-8.58-20.06-13.03-31.59-15.73
			c-12.69-2.96-26.01-5.07-39.07-4.23c-12.04,0.77-24.27,3.92-34.39,10.7c-5.54,3.71-10.06,8.18-14.08,13.46
			c-3.5,4.59-6.39,9.63-9.02,14.76c-5.87,11.46-10.06,23.81-9.7,36.83c0.36,12.71,4.32,25.15,10.47,36.22
			c5.8,10.44,13.62,19.76,22.06,28.15c4.08,4.06,8.38,7.9,12.68,11.72c2.09,1.86,4.16,3.74,6.14,5.72c0.88,0.89,1.74,1.79,2.58,2.73
			c0.46,0.52,0.91,1.04,1.35,1.57c0.18,0.21,0.35,0.43,0.52,0.64c0.91,1.11-1.1-1.48-0.04-0.04c1.64,2.24,3.01,4.64,4.12,7.19
			c-0.25-0.6-0.5-1.19-0.76-1.79c1.58,3.76,2.59,7.71,3.43,11.7c0.87,4.15,1.71,8.33,2.29,12.53c-0.09-0.66-0.18-1.33-0.27-1.99
			c0.52,3.89,0.74,7.82,0.24,11.73c0.09-0.66,0.18-1.33,0.27-1.99c-0.34,2.4-0.95,4.74-1.88,6.98c0.25-0.6,0.5-1.19,0.76-1.79
			c-0.35,0.81-0.73,1.61-1.17,2.38c-0.25,0.44-0.51,0.87-0.79,1.28c-0.15,0.23-1.17,1.59-0.29,0.46c0.88-1.14-0.18,0.18-0.37,0.39
			c-0.29,0.32-0.6,0.63-0.91,0.93c-0.31,0.3-0.69,0.55-0.98,0.86c1.03-0.78,1.24-0.94,0.62-0.49c-0.21,0.15-0.41,0.29-0.63,0.42
			c-3.28,2.15-4.96,6.74-2.69,10.26c2.11,3.27,6.75,4.99,10.26,2.69c9.18-6.02,13.2-16.76,13.09-27.43
			c-0.06-5.71-1.15-11.39-2.24-16.97c-0.94-4.81-1.88-9.66-3.61-14.26c-2.03-5.41-4.82-10.02-8.5-14.45
			c-2.9-3.49-6.24-6.57-9.62-9.58c-7.01-6.25-13.95-12.55-20.18-19.61c-1.72-1.94-3.48-3.92-5.01-6.02
			c0.07,0.09,1.12,1.47,0.38,0.49c-0.22-0.29-0.44-0.58-0.65-0.87c-0.39-0.52-0.78-1.05-1.16-1.58c-0.76-1.06-1.5-2.13-2.22-3.21
			c-3-4.51-5.61-9.27-7.73-14.26c0.25,0.6,0.5,1.19,0.76,1.79c-2.44-5.83-4.2-11.91-5.06-18.18c0.09,0.66,0.18,1.33,0.27,1.99
			c-0.66-5.08-0.71-10.19-0.05-15.27c-0.09,0.66-0.18,1.33-0.27,1.99c0.81-5.79,2.53-11.37,4.78-16.76c-0.25,0.6-0.5,1.19-0.76,1.79
			c1.75-4.13,3.77-8.13,5.96-12.04c0.99-1.78,2.03-3.53,3.13-5.24c0.63-0.98,1.27-1.94,1.95-2.89c0.25-0.35,0.51-0.71,0.77-1.06
			c0.17-0.23,0.35-0.46,0.52-0.7c-0.73,0.94-0.86,1.11-0.37,0.49c1.38-1.67,2.79-3.3,4.36-4.81c0.69-0.66,1.4-1.3,2.13-1.92
			c0.41-0.35,0.82-0.73,1.27-1.03c-0.29,0.22-0.58,0.45-0.87,0.67c0.22-0.16,0.43-0.33,0.65-0.49c3.31-2.42,6.91-4.39,10.68-5.98
			c-0.6,0.25-1.19,0.5-1.79,0.76c5.21-2.16,10.68-3.57,16.27-4.34c-0.66,0.09-1.33,0.18-1.99,0.27c8.62-1.14,17.32-0.76,25.92,0.39
			c-0.66-0.09-1.33-0.18-1.99-0.27c10.28,1.41,20.87,3.39,30.47,7.44c-0.6-0.25-1.19-0.5-1.79-0.76c2.54,1.09,5,2.34,7.34,3.82
			c0.58,0.37,1.15,0.75,1.72,1.15c0.28,0.2,0.78,0.47,1,0.73c-0.14-0.17-1.32-1.06-0.53-0.41c1.08,0.89,2.13,1.81,3.13,2.81
			c0.92,0.93,1.8,1.9,2.63,2.92c0.34,0.42,0.84,1.32-0.32-0.44c0.18,0.27,0.39,0.53,0.58,0.79c0.38,0.53,0.75,1.07,1.11,1.62
			c1.47,2.26,2.71,4.65,3.76,7.14c-0.25-0.6-0.5-1.19-0.76-1.79c1.62,3.91,2.71,8,3.3,12.19c-0.09-0.66-0.18-1.33-0.27-1.99
			c0.66,5.02,0.58,10.09-0.1,15.11c0.09-0.66,0.18-1.33,0.27-1.99c-0.88,6.22-2.65,12.26-5.06,18.05c0.25-0.6,0.5-1.19,0.76-1.79
			c-0.36,0.84-0.73,1.68-1.11,2.52c-0.86,1.88-1.33,3.71-0.76,5.78c0.48,1.74,1.82,3.62,3.45,4.48
			C422.68,210.51,427.91,209.89,429.65,206.08L429.65,206.08z"/>
	</g>
</g>
<g>
	<g>
		<path d="M303.37,235.71c7.4,3.62,15.14,6.62,23.11,8.74c6.86,1.83,14.01,2.73,20.61,5.46c-0.6-0.25-1.19-0.5-1.79-0.76
			c1.38,0.59,2.73,1.25,4.02,2.02c0.6,0.37,1.63,0.8,2.05,1.38c-0.27-0.38-1.32-1.06-0.37-0.27c0.27,0.22,0.53,0.45,0.78,0.68
			c1.13,1.03,2.18,2.15,3.15,3.33c0.18,0.21,0.35,0.43,0.53,0.65c-0.22-0.29-0.44-0.57-0.66-0.86c0.27,0.29,0.52,0.69,0.75,1.01
			c0.45,0.62,0.89,1.26,1.31,1.9c3.61,5.45,6.64,11.3,9.2,17.32c-0.25-0.6-0.5-1.19-0.76-1.79c3.48,8.26,6.18,17.02,7.39,25.92
			c-0.09-0.66-0.18-1.33-0.27-1.99c0.56,4.29,0.7,8.63,0.14,12.92c0.09-0.66,0.18-1.33,0.27-1.99c-0.37,2.6-1,5.13-1.99,7.56
			c0.25-0.6,0.5-1.19,0.76-1.79c-0.5,1.18-1.08,2.32-1.76,3.41c-0.19,0.3-0.38,0.59-0.58,0.87c-0.18,0.26-0.86,1.15-0.04,0.09
			c0.82-1.07,0.12-0.18-0.08,0.06c-0.23,0.27-0.47,0.53-0.72,0.79c-0.42,0.44-0.86,0.86-1.32,1.26c-0.52,0.46-1.4,0.79,0.3-0.19
			c-0.33,0.19-0.63,0.46-0.95,0.67c-1.18,0.79-2.44,1.44-3.75,2c0.6-0.25,1.19-0.5,1.79-0.76c-2.43,1.01-4.96,1.65-7.56,2.02
			c0.66-0.09,1.33-0.18,1.99-0.27c-3.03,0.41-6.07,0.46-9.12,0.26c-3.92-0.26-7.67,3.64-7.5,7.5c0.19,4.29,3.3,7.22,7.5,7.5
			c5.59,0.37,11.51-0.05,16.85-1.86c6.31-2.14,11.43-5.84,15.34-11.22c6.53-9,6.58-21.04,5.06-31.56
			c-1.66-11.53-5.76-22.85-10.93-33.24c-5.25-10.56-11.98-21.46-23.25-26.28c-6.03-2.58-12.29-3.81-18.64-5.28
			c-6.57-1.52-12.99-3.62-19.21-6.24c0.6,0.25,1.19,0.5,1.79,0.76c-1.98-0.84-3.93-1.74-5.86-2.68c-1.83-0.89-3.76-1.31-5.78-0.76
			c-1.74,0.48-3.62,1.82-4.48,3.45C298.9,228.82,299.61,233.87,303.37,235.71L303.37,235.71z"/>
	</g>
</g>
<g>
	<g>
		<path d="M642.65,289.71c-3.76-2.04-7.8-1.85-11.56,0.04c-2.81,1.41-4.82,3.76-6.65,6.23c-2.79,3.75-4.73,8.17-6.08,12.63
			c-2.64,8.75-2.89,18.15-2.91,27.22c-0.01,5.98,0.26,12.16,2.18,17.87c1.24,3.71,5.22,6.53,9.23,5.24c3.69-1.2,6.57-5.24,5.24-9.23
			c-0.68-2.03-1.13-4.11-1.43-6.23c0.09,0.66,0.18,1.33,0.27,1.99c-0.59-4.58-0.52-9.22-0.44-13.83c0.07-4.18,0.27-8.35,0.81-12.49
			c-0.09,0.66-0.18,1.33-0.27,1.99c0.59-4.32,1.57-8.57,3.25-12.61c-0.25,0.6-0.5,1.19-0.76,1.79c0.85-1.98,1.85-3.88,3.06-5.66
			c0.2-0.29,1.26-1.71,0.46-0.68c-0.79,1.02,0.28-0.29,0.53-0.54c0.18-0.18,0.39-0.34,0.56-0.53c0.57-0.61-1.32,0.87-0.61,0.46
			c0.49-0.29,0.94-0.59,1.46-0.82c-0.6,0.25-1.19,0.5-1.79,0.76c0.45-0.17,0.88-0.29,1.35-0.37c-0.66,0.09-1.33,0.18-1.99,0.27
			c0.35-0.03,0.66-0.03,1.01,0.01c-0.66-0.09-1.33-0.18-1.99-0.27c0.35,0.07,0.65,0.16,0.98,0.3c-0.6-0.25-1.19-0.5-1.79-0.76
			c0.11,0.06,0.21,0.11,0.32,0.17c3.45,1.87,8.33,0.97,10.26-2.69C647.19,296.47,646.34,291.71,642.65,289.71L642.65,289.71z"/>
	</g>
</g>
<g>
	<g>
		<path d="M587.88,365.09c-0.07-0.49-0.13-0.97-0.2-1.46c0.09,0.66,0.18,1.33,0.27,1.99c-1.36-10.23-2.24-20.53-2.62-30.84
			c-0.37-10.06-0.54-20.26,0.76-30.26c-0.09,0.66-0.18,1.33-0.27,1.99c0.86-6.35,2.51-12.47,4.99-18.38
			c-0.25,0.6-0.5,1.19-0.76,1.79c4.4-10.36,10.8-19.68,17.17-28.9c2.24-3.24,0.7-8.47-2.69-10.26c-3.82-2.02-7.87-0.76-10.26,2.69
			c-8.47,12.25-16.97,24.88-20.99,39.41c-2.14,7.76-2.89,15.91-3.1,23.93c-0.21,7.96-0.03,15.93,0.41,23.88
			c0.52,9.51,1.52,18.97,2.81,28.41c0.24,1.72,2.03,3.65,3.45,4.48c1.61,0.94,3.98,1.34,5.78,0.76c1.81-0.59,3.57-1.71,4.48-3.45
			C588.13,368.95,588.17,367.2,587.88,365.09L587.88,365.09z"/>
	</g>
</g>
<g>
	<g>
		<path d="M576.88,236.4c-9.76,3.14-17.54,9.77-23.36,18.07c-5.79,8.26-8.99,18.22-10.93,28.03c-2,10.08-3.26,20.42-3.96,30.67
			c-0.67,9.76-0.57,19.55,0.74,29.25c1.52,11.34,4.7,22.3,10.26,32.35c1.9,3.44,6.91,4.85,10.26,2.69
			c3.48-2.24,4.72-6.59,2.69-10.26c-1.3-2.35-2.47-4.76-3.51-7.23c0.25,0.6,0.5,1.19,0.76,1.79c-2.97-7.15-4.83-14.67-5.86-22.33
			c0.09,0.66,0.18,1.33,0.27,1.99c-1.91-14.65-0.9-29.5,1.04-44.09c-0.09,0.66-0.18,1.33-0.27,1.99c1.33-9.93,2.98-19.92,6.84-29.22
			c-0.25,0.6-0.5,1.19-0.76,1.79c1.09-2.57,2.34-5.08,3.8-7.46c0.67-1.09,1.39-2.15,2.14-3.18c0.19-0.26,0.39-0.51,0.57-0.77
			c-1.33,1.89-0.55,0.72-0.22,0.32c0.4-0.49,0.82-0.98,1.24-1.45c0.85-0.95,1.74-1.86,2.67-2.73c0.46-0.43,0.94-0.85,1.42-1.26
			c0.24-0.2,0.49-0.4,0.73-0.6c0.69-0.58-1.47,1.09-0.47,0.36c2.14-1.57,4.4-2.91,6.84-3.97c-0.6,0.25-1.19,0.5-1.79,0.76
			c0.93-0.39,1.88-0.74,2.84-1.05c3.73-1.2,6.52-5.26,5.24-9.23C584.9,237.9,580.88,235.11,576.88,236.4L576.88,236.4z"/>
	</g>
</g>
<g>
	<g>
		<path d="M527.98,386.38c-0.11-0.01-0.22-0.02-0.34-0.03c0.66,0.09,1.33,0.18,1.99,0.27c-0.11-0.03-0.21-0.06-0.32-0.09
			c0.6,0.25,1.19,0.5,1.79,0.76c-1.06-0.52,0.97,1.01,0.53,0.49c-0.2-0.23-0.43-0.44-0.64-0.66c-0.45-0.48-0.89-0.96-1.32-1.45
			c-0.82-0.92-1.61-1.87-2.38-2.83c-0.13-0.17-0.57-0.58-0.6-0.76c0.02,0.13,1.09,1.43,0.46,0.6c-0.39-0.52-0.77-1.03-1.15-1.56
			c-0.75-1.05-1.47-2.11-2.17-3.2c-2.72-4.23-5.03-8.71-6.99-13.34c0.25,0.6,0.5,1.19,0.76,1.79c-4.11-9.82-6.6-20.23-8.04-30.75
			c0.09,0.66,0.18,1.33,0.27,1.99c-0.96-7.15-1.45-14.36-1.57-21.58c-0.15-8.54,0.1-17.11,1.23-25.59
			c-0.09,0.66-0.18,1.33-0.27,1.99c1.5-10.91,4.65-21.48,8.17-31.89c3.43-10.15,6.97-20.27,10.69-30.32
			c2.13-5.74,4.35-11.44,6.72-17.08c-0.25,0.6-0.5,1.19-0.76,1.79c2.75-6.5,5.7-12.9,8.96-19.16c1.81-3.48,1.01-8.31-2.69-10.26
			c-3.45-1.82-8.33-1.03-10.26,2.69c-7.32,14.07-13.17,28.88-18.54,43.78c-2.62,7.26-5.16,14.55-7.66,21.85
			c-2.53,7.38-4.96,14.8-6.78,22.39c-3.6,15.01-4.33,30.55-3.62,45.93c0.63,13.41,2.47,26.98,6.58,39.79
			c2.32,7.24,5.35,14.36,9.22,20.91c2.04,3.44,4.35,6.68,6.82,9.83c1.12,1.43,2.29,2.83,3.51,4.17c0.59,0.65,1.17,1.3,1.84,1.87
			c1.98,1.7,3.93,2.44,6.55,2.66c3.92,0.32,7.67-3.68,7.5-7.5C535.29,389.54,532.18,386.72,527.98,386.38L527.98,386.38z"/>
	</g>
</g>
</svg>
