<?xml version="1.0" encoding="utf-8"?>
<!-- Generator: Adobe Illustrator 27.9.0, SVG Export Plug-In . SVG Version: 6.00 Build 0)  -->
<svg version="1.1" id="Layer_1" xmlns="http://www.w3.org/2000/svg" xmlns:xlink="http://www.w3.org/1999/xlink" x="0px" y="0px"
	 viewBox="0 0 841.89 595.28" style="enable-background:new 0 0 841.89 595.28;" xml:space="preserve">
<style type="text/css">
	.st0{fill:#FFFFFF;stroke:#000000;stroke-width:7;stroke-miterlimit:10;}
	.st1{fill:#FFFFFF;stroke:#000000;stroke-width:5;stroke-miterlimit:10;}
	.st2{fill:none;stroke:#000000;stroke-width:5;stroke-miterlimit:10;}
</style>
<path class="st0" d="M219.6,474.62c0,0,3.66-157.59,110.99-154.45c0,0,2.09,24.08,54.45,24.08s60.21-24.13,60.21-24.13
	s98.43-14.09,98.43,154.5"/>
<circle class="st0" cx="388.71" cy="252.11" r="61.26"/>
<path class="st1" d="M527.14,193.86c24.86,12.51,61.26,20.21,98.72,20.21c76.19,0,137.96-31.88,137.96-71.2
	c0-39.33-61.77-71.21-137.96-71.21S487.9,103.54,487.9,142.87c0,9.54,3.82,21.28,10.42,29.59"/>
<polyline class="st2" points="529.57,193.85 467.78,226.78 498.14,169.83 "/>
</svg>
