<?xml version="1.0" encoding="utf-8"?>
<!-- Generator: Adobe Illustrator 27.9.0, SVG Export Plug-In . SVG Version: 6.00 Build 0)  -->
<svg version="1.1" id="Layer_1" xmlns="http://www.w3.org/2000/svg" xmlns:xlink="http://www.w3.org/1999/xlink" x="0px" y="0px"
	 viewBox="0 0 841.89 595.28" style="enable-background:new 0 0 841.89 595.28;" xml:space="preserve">
<style type="text/css">
	.st0{fill:none;stroke:#000000;stroke-width:3;stroke-miterlimit:10;}
	.st1{fill:#010101;}
	.st2{fill:none;stroke:#010101;stroke-width:3;stroke-miterlimit:10;}
</style>
<polyline class="st0" points="486.03,218.26 589.23,218.26 589.23,439 226.2,439 226.2,218.26 329.41,218.26 "/>
<polyline class="st0" points="422.27,128.85 562.32,129.16 589.57,218.26 486.37,218.26 "/>
<polyline class="st0" points="329.75,218.26 226.54,218.26 259.12,128.5 393.88,128.79 "/>
<polyline class="st0" points="486.37,218.26 422.27,128.85 408.06,109.03 393.9,128.79 393.88,128.79 329.75,218.26 "/>
<g>
	<path class="st1" d="M416.09,332.05c1.39-0.45,2.15-1.95,1.7-3.34c-0.45-1.39-1.95-2.15-3.34-1.7c-3.09,1.01-6.44,2-9.47,2.36
		c-2.63,0.31-4.95,0.16-6.42-0.92c-5.1-3.74-35.33-29.1-41.96-34.67l10.81-41.49l3.26-1.25c14.92,0.53,22.59-0.24,28.33-0.82
		c9.96-1,13.8-1.38,42.96,7.69l17.49,41.14c-0.57,0.38-1.14,0.76-1.71,1.15c-1.08,0.74-2.29,1.59-3.57,2.51
		c-1.19,0.85-1.45,2.51-0.6,3.69c0.85,1.19,2.51,1.45,3.69,0.6c1.06-0.76,2.2-1.57,3.47-2.43c1.1-0.75,2.2-1.49,3.31-2.2
		c1.18-0.65,1.69-2.1,1.16-3.36l-2.44,1.04l2.44-1.04l-18.77-44.14c-0.27-0.77-0.88-1.4-1.72-1.67l-0.79,2.53l0.79-2.53
		c-31.25-9.77-35.35-9.35-46.23-8.26c-5.63,0.57-13.17,1.32-27.93,0.79c-0.42-0.05-0.85,0-1.27,0.16l0,0.01l-4.8,1.85
		c-0.88,0.24-1.61,0.94-1.86,1.89l2.57,0.67l-2.56-0.66l-11.52,44.21c-0.36,1.01-0.07,2.18,0.8,2.91l1.71-2.03l-1.7,2.03
		c0.11,0.09,37.6,31.62,43.51,35.95c2.73,2,6.33,2.38,10.18,1.92C409.06,334.23,412.73,333.15,416.09,332.05z"/>
	<path class="st1" d="M391.62,250.55c0.81-1.21,0.49-2.86-0.73-3.67c-1.21-0.81-2.86-0.49-3.67,0.73
		c-0.05,0.08-17.82,26.26-2.59,33.4l0,0.01c0.09,0.04,0.19,0.08,0.28,0.11c6.01,2.51,10.64-0.89,15.68-4.6
		c7.14-5.26,15.37-11.32,30.41,7.61l0,0c0.1,0.13,0.21,0.24,0.33,0.35c1.8,1.85,19.78,20.31,21.81,25.02
		c0.37,0.86,0.46,1.83,0.27,2.76c-0.17,0.84-0.57,1.63-1.2,2.23c-0.65,0.62-1.57,1.06-2.77,1.2c-1.63,0.19-3.71-0.16-6.27-1.29
		l-20.62-20.62c-1.04-1.04-2.72-1.04-3.75,0c-1.04,1.04-1.04,2.72,0,3.75l20.89,20.89c0.22,0.23,0.49,0.43,0.8,0.58l0-0.01
		c3.75,1.75,6.94,2.26,9.55,1.96c2.44-0.28,4.38-1.26,5.82-2.63c1.46-1.39,2.38-3.18,2.75-5.05c0.39-1.94,0.18-4.01-0.61-5.85
		c-2.43-5.67-21.42-25.14-22.93-26.69c-18.16-22.81-28.57-15.14-37.61-8.49c-3.76,2.77-7.21,5.31-10.49,4
		c-0.03-0.01-0.05-0.03-0.08-0.04l0,0l-0.06-0.02C377.34,271.65,391.58,250.61,391.62,250.55z"/>
	<path class="st1" d="M412.36,305.36c-1.08-0.99-2.75-0.92-3.74,0.16c-0.99,1.08-0.92,2.75,0.16,3.74l19.49,17.99
		c1.8,1.66,4.83,2.74,7.74,2.74c1.69,0,3.37-0.35,4.83-1.14c1.59-0.86,2.89-2.19,3.63-4.11c0.86-2.21,0.91-5.15-0.36-8.95
		c-0.46-1.39-1.95-2.14-3.34-1.68c-1.39,0.46-2.14,1.95-1.68,3.34c0.84,2.51,0.88,4.24,0.44,5.38c-0.24,0.63-0.67,1.06-1.2,1.35
		c-0.66,0.36-1.47,0.51-2.32,0.52c-1.64,0-3.27-0.53-4.15-1.35L412.36,305.36z"/>
	<path class="st1" d="M406.56,317.41c-1.04-1.03-2.72-1.01-3.74,0.03c-1.03,1.04-1.01,2.72,0.03,3.74l13.62,13.23l1.86-1.89
		l-1.86,1.9c0.24,0.23,0.51,0.41,0.8,0.54c1.98,1.06,14.7,7.22,16.11-8.8c0.13-1.46-0.96-2.75-2.42-2.87
		c-1.46-0.13-2.75,0.96-2.87,2.42c-0.71,7.99-6.79,5.38-8.17,4.68L406.56,317.41z"/>
	<g>
		<path class="st1" d="M340.15,230.75l23.13,6.2c2.12,0.57,3.81,1.95,4.83,3.71v0.01c1.02,1.77,1.37,3.92,0.81,6.03l-13.83,51.63
			c-0.57,2.12-1.95,3.81-3.71,4.83h-0.01c-1.77,1.02-3.92,1.37-6.03,0.81l-23.13-6.2c-2.12-0.57-3.81-1.95-4.83-3.71v-0.01
			c-1.02-1.77-1.37-3.92-0.81-6.03l13.83-51.63c0.57-2.12,1.95-3.81,3.71-4.83h0.01C335.89,230.53,338.04,230.18,340.15,230.75
			L340.15,230.75z M361.92,242.07l-23.13-6.2c-0.71-0.19-1.43-0.08-2.02,0.26l0,0c-0.59,0.34-1.05,0.91-1.24,1.61l-13.83,51.63
			c-0.19,0.71-0.08,1.43,0.26,2.02l0,0c0.34,0.59,0.91,1.05,1.61,1.24l23.13,6.2c0.71,0.19,1.43,0.08,2.02-0.26l0,0
			c0.59-0.34,1.05-0.91,1.24-1.61l13.83-51.63c0.19-0.71,0.08-1.43-0.26-2.02l0,0C363.19,242.72,362.62,242.26,361.92,242.07z"/>
		<path class="st1" d="M335.15,277.61c2.04,0,3.88,0.83,5.22,2.16c1.34,1.34,2.16,3.18,2.16,5.22c0,2.04-0.83,3.88-2.16,5.22
			c-1.34,1.34-3.18,2.16-5.22,2.16c-2.04,0-3.88-0.83-5.22-2.16c-1.34-1.34-2.16-3.18-2.16-5.22c0-2.04,0.83-3.88,2.16-5.22
			C331.27,278.43,333.11,277.61,335.15,277.61L335.15,277.61z M336.62,283.52c-0.38-0.38-0.89-0.61-1.47-0.61
			c-0.57,0-1.09,0.23-1.47,0.61c-0.38,0.37-0.61,0.89-0.61,1.47c0,0.57,0.23,1.09,0.61,1.47c0.37,0.38,0.89,0.61,1.47,0.61
			c0.57,0,1.09-0.23,1.47-0.61c0.38-0.38,0.61-0.89,0.61-1.47C337.22,284.42,336.99,283.9,336.62,283.52z"/>
	</g>
	<g>
		<path class="st1" d="M468.65,239.36l-21.94,9.61c-0.66,0.29-1.15,0.83-1.4,1.47c-0.25,0.64-0.26,1.37,0.03,2.04l21.44,48.97
			c0.29,0.66,0.83,1.15,1.47,1.4c0.64,0.25,1.37,0.26,2.04-0.03l21.94-9.61c0.66-0.29,1.15-0.83,1.4-1.47
			c0.25-0.64,0.26-1.37-0.03-2.04l-21.44-48.96c-0.29-0.66-0.83-1.15-1.47-1.4C470.05,239.07,469.32,239.06,468.65,239.36
			L468.65,239.36z M444.6,244.11l21.94-9.61c2.01-0.88,4.19-0.86,6.08-0.12c1.9,0.74,3.51,2.21,4.39,4.22l21.44,48.96
			c0.88,2.01,0.86,4.19,0.12,6.08c-0.74,1.9-2.21,3.51-4.22,4.39l-21.94,9.61c-2.01,0.88-4.19,0.86-6.08,0.12
			c-1.9-0.74-3.51-2.21-4.4-4.22l-21.44-48.97c-0.88-2.01-0.86-4.19-0.12-6.08C441.12,246.61,442.59,244.99,444.6,244.11z"/>
		<path class="st1" d="M479.32,285.32c-0.57,0.09-1.04,0.39-1.36,0.81c-0.32,0.43-0.47,0.98-0.38,1.55
			c0.09,0.57,0.39,1.04,0.81,1.36c0.43,0.32,0.98,0.47,1.55,0.38c0.57-0.09,1.04-0.39,1.36-0.81c0.32-0.43,0.47-0.98,0.38-1.55
			c-0.09-0.57-0.39-1.04-0.81-1.36C480.44,285.39,479.89,285.23,479.32,285.32L479.32,285.32z M473.69,283
			c1.12-1.53,2.83-2.62,4.84-2.93c2.01-0.31,3.95,0.23,5.47,1.35c1.53,1.12,2.62,2.83,2.93,4.84c0.31,2.01-0.23,3.95-1.35,5.47
			c-1.12,1.53-2.83,2.62-4.84,2.93c-2.01,0.31-3.95-0.23-5.47-1.35c-1.53-1.12-2.62-2.83-2.93-4.84
			C472.03,286.47,472.57,284.52,473.69,283z"/>
	</g>
</g>
<rect x="353.53" y="360.44" class="st2" width="108.37" height="78.56"/>
<line class="st2" x1="407.71" y1="360.44" x2="407.71" y2="439"/>
<rect x="261.32" y="260.04" class="st2" width="47.4" height="47.4"/>
<line class="st2" x1="285.02" y1="259.89" x2="285.02" y2="307.44"/>
<line class="st2" x1="261.32" y1="282.39" x2="308.72" y2="282.39"/>
<rect x="511.93" y="260.04" class="st2" width="47.4" height="47.4"/>
<line class="st2" x1="535.62" y1="259.89" x2="535.62" y2="307.44"/>
<line class="st2" x1="511.93" y1="282.39" x2="559.32" y2="282.39"/>
<circle class="st2" cx="407.32" cy="192.24" r="23.06"/>
<line class="st0" x1="407.32" y1="192.24" x2="407.32" y2="171.92"/>
<line class="st0" x1="407.32" y1="192.24" x2="398.86" y2="197.57"/>
</svg>
