<?xml version="1.0" encoding="utf-8"?>
<!-- Generator: Adobe Illustrator 27.9.0, SVG Export Plug-In . SVG Version: 6.00 Build 0)  -->
<svg version="1.1" id="Layer_1" xmlns="http://www.w3.org/2000/svg" xmlns:xlink="http://www.w3.org/1999/xlink" x="0px" y="0px"
	 viewBox="0 0 841.89 595.28" style="enable-background:new 0 0 841.89 595.28;" xml:space="preserve">
<style type="text/css">
	.st0{fill:#010101;}
</style>
<g>
	<path class="st0" d="M439.17,396.92c3.02-0.98,4.67-4.23,3.69-7.25c-0.98-3.02-4.23-4.67-7.25-3.69c-6.7,2.2-13.98,4.35-20.54,5.13
		c-5.7,0.68-10.74,0.34-13.93-2c-11.06-8.11-76.66-63.15-91.04-75.22l23.46-90.03l7.07-2.72c32.37,1.15,49.01-0.53,61.46-1.78
		c21.61-2.17,29.93-3,93.22,16.68l37.95,89.26c-1.23,0.82-2.47,1.66-3.71,2.5c-2.35,1.61-4.96,3.45-7.74,5.45
		c-2.57,1.85-3.16,5.44-1.31,8.01c1.85,2.57,5.44,3.16,8.01,1.31c2.3-1.65,4.78-3.4,7.52-5.27c2.39-1.63,4.78-3.23,7.19-4.78
		c2.55-1.41,3.68-4.55,2.51-7.29l-5.3,2.25l5.29-2.25L505,229.46c-0.58-1.67-1.91-3.05-3.72-3.61l-1.72,5.5l1.71-5.49
		c-67.8-21.19-76.69-20.3-100.3-17.92c-12.22,1.23-28.58,2.87-60.6,1.71c-0.9-0.11-1.84,0-2.75,0.34l0.01,0.02l-10.41,4.01
		c-1.92,0.53-3.5,2.04-4.04,4.1l5.57,1.45l-5.56-1.44l-24.99,95.92c-0.77,2.2-0.16,4.74,1.73,6.32l3.71-4.41l-3.69,4.41
		c0.23,0.2,81.58,68.6,94.4,78c5.93,4.35,13.73,5.16,22.08,4.16C423.91,401.65,431.89,399.31,439.17,396.92z"/>
	<path class="st0" d="M386.08,220.1c1.76-2.63,1.06-6.2-1.58-7.97c-2.63-1.76-6.2-1.06-7.96,1.58c-0.11,0.16-38.67,56.98-5.63,72.48
		l-0.01,0.02c0.2,0.09,0.4,0.18,0.61,0.24c13.05,5.44,23.08-1.94,34.01-9.99c15.5-11.41,33.36-24.55,65.98,16.52l-0.01,0.01
		c0.22,0.27,0.46,0.52,0.71,0.75c3.91,4,42.93,44.06,47.31,54.29c0.8,1.86,1,3.98,0.59,6c-0.36,1.83-1.23,3.54-2.6,4.84
		c-1.41,1.34-3.41,2.31-6.02,2.61c-3.53,0.41-8.04-0.34-13.6-2.8l-44.74-44.74c-2.25-2.25-5.9-2.25-8.14,0
		c-2.25,2.25-2.25,5.9,0,8.15l45.33,45.33c0.48,0.51,1.07,0.94,1.75,1.25l0.01-0.02c8.13,3.79,15.06,4.91,20.71,4.26
		c5.29-0.61,9.51-2.73,12.64-5.71c3.17-3.03,5.16-6.89,5.97-10.96c0.84-4.22,0.4-8.7-1.31-12.7c-5.27-12.3-46.47-54.55-49.76-57.91
		c-39.4-49.49-62-32.86-81.61-18.43c-8.16,6.01-15.65,11.52-22.76,8.67c-0.06-0.03-0.12-0.06-0.18-0.09l0,0.01l-0.12-0.05
		C355.1,265.87,385.99,220.23,386.08,220.1z"/>
	<path class="st0" d="M431.09,339.03c-2.34-2.15-5.97-2-8.12,0.34c-2.15,2.34-2,5.97,0.34,8.12l42.28,39.03
		c3.9,3.6,10.48,5.95,16.79,5.94c3.66-0.01,7.32-0.77,10.48-2.47c3.44-1.86,6.26-4.76,7.87-8.91c1.86-4.79,1.97-11.18-0.78-19.42
		c-0.99-3.01-4.24-4.64-7.25-3.65c-3.01,0.99-4.64,4.24-3.65,7.25c1.81,5.44,1.92,9.21,0.96,11.68c-0.53,1.36-1.46,2.31-2.6,2.93
		c-1.43,0.77-3.2,1.12-5.04,1.12c-3.56,0.01-7.09-1.15-9.01-2.92L431.09,339.03z"/>
	<path class="st0" d="M418.5,365.15c-2.26-2.22-5.9-2.19-8.12,0.07c-2.22,2.26-2.19,5.9,0.07,8.12l29.55,28.7l4.03-4.09l-4.03,4.11
		c0.52,0.51,1.11,0.9,1.74,1.17c4.31,2.31,31.89,15.66,34.96-19.09c0.27-3.17-2.07-5.96-5.24-6.23c-3.17-0.27-5.96,2.07-6.23,5.24
		c-1.53,17.35-14.72,11.68-17.72,10.15L418.5,365.15z"/>
	<g>
		<path class="st0" d="M274.41,177.13l50.19,13.45c4.59,1.23,8.26,4.22,10.47,8.05v0.02c2.21,3.83,2.97,8.5,1.75,13.08L306.8,323.76
			c-1.23,4.59-4.22,8.26-8.05,10.47h-0.02c-3.83,2.21-8.5,2.97-13.08,1.75l-50.19-13.45c-4.59-1.23-8.26-4.22-10.47-8.05v-0.02
			c-2.21-3.83-2.97-8.5-1.75-13.08l30.02-112.03c1.23-4.59,4.22-8.26,8.05-10.47h0.02C265.17,176.66,269.84,175.9,274.41,177.13
			L274.41,177.13z M321.63,201.69l-50.19-13.45c-1.54-0.41-3.1-0.16-4.38,0.57l0.01,0.01c-1.28,0.74-2.29,1.97-2.7,3.5
			l-30.02,112.03c-0.41,1.54-0.16,3.1,0.57,4.38l0.01,0c0.74,1.28,1.97,2.29,3.5,2.7l50.19,13.45c1.54,0.41,3.1,0.16,4.38-0.57
			l-0.01-0.01c1.28-0.74,2.29-1.97,2.7-3.5l30.02-112.03c0.41-1.54,0.16-3.1-0.57-4.37l-0.01,0.01
			C324.39,203.1,323.16,202.1,321.63,201.69z"/>
		<path class="st0" d="M263.56,278.8c4.42,0,8.43,1.79,11.33,4.69c2.9,2.9,4.69,6.9,4.69,11.33c0,4.42-1.79,8.43-4.69,11.33
			c-2.9,2.9-6.9,4.69-11.33,4.69c-4.42,0-8.43-1.79-11.33-4.69c-2.9-2.9-4.69-6.9-4.69-11.33c0-4.42,1.79-8.43,4.69-11.33
			C255.13,280.59,259.14,278.8,263.56,278.8L263.56,278.8z M266.74,291.64c-0.81-0.81-1.94-1.32-3.18-1.32
			c-1.24,0-2.37,0.5-3.18,1.32c-0.81,0.81-1.32,1.94-1.32,3.18c0,1.24,0.5,2.37,1.32,3.18c0.81,0.81,1.94,1.32,3.18,1.32
			c1.24,0,2.37-0.5,3.18-1.32c0.81-0.81,1.32-1.94,1.32-3.18C268.06,293.58,267.56,292.45,266.74,291.64z"/>
	</g>
	<g>
		<path class="st0" d="M553.22,195.81l-47.6,20.84c-1.44,0.63-2.49,1.81-3.03,3.19c-0.54,1.39-0.56,2.97,0.07,4.42l46.52,106.24
			c0.63,1.44,1.8,2.49,3.19,3.03c1.39,0.54,2.97,0.56,4.42-0.07l47.6-20.84c1.44-0.63,2.49-1.8,3.04-3.19
			c0.54-1.39,0.56-2.97-0.07-4.42l-46.52-106.24c-0.63-1.44-1.81-2.49-3.19-3.04C556.26,195.19,554.67,195.17,553.22,195.81
			L553.22,195.81z M501.03,206.12l47.6-20.84c4.35-1.91,9.08-1.86,13.2-0.25c4.11,1.61,7.62,4.79,9.54,9.16l46.52,106.24
			c1.91,4.35,1.86,9.08,0.25,13.2c-1.61,4.11-4.79,7.62-9.16,9.54l-47.6,20.84c-4.35,1.91-9.08,1.86-13.2,0.25
			c-4.11-1.61-7.62-4.79-9.54-9.15l-46.52-106.24c-1.91-4.35-1.86-9.08-0.25-13.2C493.49,211.54,496.67,208.03,501.03,206.12z"/>
		<path class="st0" d="M576.36,295.54c-1.23,0.19-2.27,0.85-2.94,1.77c-0.68,0.93-1.01,2.13-0.82,3.37
			c0.19,1.23,0.85,2.27,1.77,2.94c0.93,0.68,2.13,1.01,3.37,0.82c1.23-0.19,2.26-0.85,2.94-1.77c0.68-0.93,1.01-2.13,0.82-3.37
			c-0.19-1.23-0.85-2.27-1.77-2.94C578.81,295.68,577.61,295.35,576.36,295.54L576.36,295.54z M564.15,290.51
			c2.44-3.31,6.13-5.69,10.5-6.36c4.36-0.66,8.58,0.51,11.88,2.94c3.31,2.44,5.69,6.13,6.36,10.5c0.66,4.36-0.51,8.58-2.94,11.88
			c-2.44,3.31-6.13,5.69-10.5,6.36c-4.36,0.66-8.58-0.51-11.88-2.94c-3.31-2.44-5.69-6.13-6.36-10.5
			C560.55,298.03,561.72,293.81,564.15,290.51z"/>
	</g>
</g>
</svg>
