<?xml version="1.0" encoding="UTF-8"?>
<svg id="Layer_1" data-name="Layer 1" xmlns="http://www.w3.org/2000/svg" viewBox="0 0 622.24 685.82">
  <defs>
    <style>
      .cls-1 {
        fill: #43ff00;
        stroke-width: 0px;
      }
    </style>
  </defs>
  <path class="cls-1" d="M416.97,353.75c12.52,1.44,24.91,2.65,37.25,4.34,39.04,5.33,77.59,12.8,112.91,31.3,10.08,5.28,19.79,11.87,28.32,19.4,24.6,21.72,31.58,49.4,23.76,80.71-5.91,23.68-19.69,42.57-39.48,56.6-25.64,18.18-53.01,15.7-80.45,4.67-22.77-9.15-41.74-24.07-59.29-40.88-23.69-22.7-43.6-48.55-62.15-75.5-1.04-1.51-2.11-3-3.19-4.47-.18-.24-.53-.36-1.14-.74-6.14,3.55-12.43,7.18-18.8,10.86,5.73,12.95,11.56,25.44,16.82,38.16,11.47,27.76,20.79,56.18,24.65,86.11,3.03,23.48,3.1,46.86-4.25,69.73-9.5,29.59-30.45,45.6-60.59,50.17-16.6,2.52-33.25,2.4-49.54-2.29-30.32-8.72-46.85-30.28-54.16-59.77-6.07-24.48-3.5-48.99,1.42-73.31,7.21-35.62,20.5-69.14,35.68-101.98.84-1.81,1.72-3.6,2.55-5.42.12-.27.05-.64.09-1.52-6.06-3.52-12.34-7.16-19.03-11.04-1.57,2.23-3,4.22-4.39,6.23-20.49,29.69-42.57,58.05-69.64,82.15-17.29,15.39-36.02,28.56-58.17,36.12-50.96,17.39-102.05-11.57-113.58-64.32-8.4-38.42,4.75-69.76,38.63-91.84,21.18-13.8,44.71-21.94,68.99-28.19,30.07-7.74,60.74-11.79,91.57-14.83.81-.08,1.62-.22,3.17-.43,0-6.47.22-12.91-.22-19.31-.07-1.06-3.01-2.54-4.76-2.76-12.88-1.63-25.84-2.63-38.68-4.5-37.16-5.42-73.75-13.03-107.49-30.55-12.66-6.57-24.26-14.66-33.75-25.4C-.23,248.34-4.24,221.81,4.05,193.23c5.96-20.55,18.03-37.49,34.79-50.72,24.51-19.35,51.6-19.04,79.45-8.84,25.71,9.42,46.65,26.1,66.04,44.89,22.34,21.65,41.45,46.03,59.33,71.4,1.43,2.03,2.88,4.05,4.61,6.49,6.55-3.51,12.92-6.92,19.25-10.32-5.95-13.72-11.92-26.87-17.39-40.23-11.52-28.12-20.49-57.01-24.22-87.27-2.92-23.66-3.02-47.19,6.31-69.84C245.01,17.78,268.82,2.14,301.6.26c12.18-.7,24.79-.05,36.71,2.37,31.7,6.45,49.7,27.28,56.37,58.29,6.26,29.11,3.27,57.97-3.5,86.61-7.42,31.4-19.28,61.19-32.96,90.31-1.19,2.54-2.38,5.09-3.76,8.06,6.44,3.5,12.68,6.89,19.42,10.55,1.33-1.81,2.6-3.47,3.81-5.18,20.76-29.5,42.98-57.76,70.06-81.82,19.2-17.06,40.01-31.49,65.12-38.73,31.08-8.96,57.83-1.99,80.33,21.3,16.12,16.68,26.69,35.99,28.58,59.51,2.47,30.85-10.04,54.64-34.39,72.78-20.64,15.38-44.28,24.18-68.79,30.94-30.9,8.53-62.49,13.17-94.36,16.1-2.31.21-4.61.58-7.28.92v21.49Z"/>
</svg>