<?xml version="1.0" encoding="UTF-8"?>
<svg id="Layer_1" data-name="Layer 1" xmlns="http://www.w3.org/2000/svg" viewBox="0 0 600 600">
  <defs>
    <style>
      .cls-1 {
        fill: red;
        stroke-width: 0px;
      }
    </style>
  </defs>
  <path id="Icon_akar-instagram-fill" data-name="Icon akar-instagram-fill" class="cls-1" d="M217.54,101.2c21.33-.98,28.12-1.2,82.45-1.2s61.12.24,82.43,1.2c16.6.34,33.02,3.48,48.58,9.29,26.85,10.4,48.08,31.63,58.48,58.49,5.83,15.54,8.99,31.95,9.34,48.54.98,21.39,1.2,28.16,1.2,82.46s-.24,61.12-1.2,82.45c-.33,16.59-3.48,33-9.31,48.54-10.37,26.87-31.6,48.11-58.47,58.49-15.56,5.84-31.99,9-48.61,9.35-21.34.98-28.15,1.2-82.46,1.2s-61.12-.24-82.45-1.2c-16.59-.33-33-3.48-48.54-9.31-13.34-5.02-25.44-12.89-35.43-23.06-10.19-9.98-18.07-22.07-23.11-35.41-5.79-15.57-8.91-32-9.23-48.61-.98-21.39-1.2-28.16-1.2-82.46s.24-61.12,1.2-82.43c.34-16.59,3.48-33,9.29-48.54,5.04-13.34,12.92-25.43,23.11-35.41,9.98-10.18,22.06-18.07,35.4-23.11,15.54-5.79,31.94-8.92,48.52-9.26h.02ZM380.8,137.19c-21.09-.97-27.39-1.16-80.81-1.16s-59.73.2-80.81,1.16c-12.68.15-25.25,2.48-37.14,6.89-8.68,3.21-16.53,8.33-22.98,14.97-6.63,6.45-11.74,14.31-14.94,23-4.41,11.89-6.74,24.46-6.89,37.14-.97,21.09-1.16,27.39-1.16,80.81s.2,59.73,1.16,80.81c.15,12.68,2.48,25.25,6.89,37.14,3.21,8.68,8.31,16.53,14.94,22.99,6.46,6.63,14.31,11.74,23,14.94,11.89,4.41,24.46,6.74,37.14,6.89,21.09.97,27.39,1.16,80.81,1.16s59.73-.2,80.81-1.16c12.68-.15,25.25-2.48,37.14-6.89,17.45-6.71,31.24-20.5,37.95-37.95,4.41-11.89,6.74-24.46,6.89-37.14.97-21.09,1.16-27.39,1.16-80.81s-.24-59.72-1.18-80.81c-.15-12.68-2.48-25.25-6.89-37.14-3.21-8.68-8.31-16.53-14.94-22.98-6.45-6.63-14.31-11.74-23-14.94-11.89-4.41-24.46-6.74-37.14-6.89v-.03ZM274.45,361.63c34.05,14.13,73.11-2.01,87.24-36.06,14.13-34.05-2.01-73.11-36.06-87.24-34.05-14.13-73.11,2.01-87.24,36.06-3.37,8.12-5.1,16.83-5.1,25.62,0,26.97,16.25,51.29,41.16,61.62ZM227.3,227.27c40.14-40.14,105.23-40.14,145.37,0,40.14,40.14,40.14,105.23,0,145.37-40.14,40.14-105.22,40.14-145.36,0-40.14-40.14-40.15-105.22,0-145.37h0ZM425.58,212.48c9.76-9.21,10.21-24.59,1-34.36-9.21-9.76-24.59-10.21-34.36-1-9.76,9.21-10.21,24.59-1,34.36.16.17.33.34.49.51,9.29,9.3,24.29,9.54,33.86.52v-.03Z"/>
</svg>