<?xml version="1.0" encoding="UTF-8"?>
<svg id="Layer_1" data-name="Layer 1" xmlns="http://www.w3.org/2000/svg" viewBox="0 0 600 600">
  <defs>
    <style>
      .cls-1 {
        fill: #002bff;
        stroke-width: 0px;
      }
    </style>
  </defs>
  <path id="Icon_corebrands-linkedin" data-name="Icon corebrands-linkedin" class="cls-1" d="M440.75,440.86h-59.17v-92.83c0-22.14-.46-50.59-30.94-50.59s-35.55,24.01-35.55,48.95v94.46h-59.25v-190.89h56.88v26.03h.79c11.6-19.84,33.17-31.7,56.14-30.85,60.02,0,71.15,39.51,71.15,90.89v104.81h-.06ZM188.94,223.83c-19-.02-34.39-15.45-34.37-34.45.02-19,15.45-34.39,34.45-34.37,19,.02,34.39,15.45,34.37,34.45,0,0,0,.02,0,.03,0,18.98-15.38,34.38-34.37,34.38-.02,0-.05,0-.07,0l-.02-.04ZM218.61,440.86h-59.36v-190.88h59.36v190.88ZM470.45,99.97H129.5c-16.1-.19-29.31,12.71-29.5,28.81,0,.02,0,.04,0,.06v342.29c.15,16.1,13.33,29.03,29.44,28.88.02,0,.04,0,.06,0h340.89c16.15.19,29.4-12.73,29.61-28.88V128.85c-.22-16.15-13.47-29.07-29.61-28.88h.06Z"/>
</svg>